<?xml version="1.0" encoding="utf-8" standalone="no"?>
<!DOCTYPE svg PUBLIC "-//W3C//DTD SVG 1.1//EN"
  "http://www.w3.org/Graphics/SVG/1.1/DTD/svg11.dtd">
<svg xmlns:xlink="http://www.w3.org/1999/xlink" width="777.1425pt" height="264.607687pt" viewBox="0 0 777.1425 264.607687" xmlns="http://www.w3.org/2000/svg" version="1.1">
 <metadata>
  <rdf:RDF xmlns:dc="http://purl.org/dc/elements/1.1/" xmlns:cc="http://creativecommons.org/ns#" xmlns:rdf="http://www.w3.org/1999/02/22-rdf-syntax-ns#">
   <cc:Work>
    <dc:type rdf:resource="http://purl.org/dc/dcmitype/StillImage"/>
    <dc:date>2026-06-18T09:08:49.061644</dc:date>
    <dc:format>image/svg+xml</dc:format>
    <dc:creator>
     <cc:Agent>
      <dc:title>Matplotlib v3.10.7, https://matplotlib.org/</dc:title>
     </cc:Agent>
    </dc:creator>
   </cc:Work>
  </rdf:RDF>
 </metadata>
 <defs>
  <style type="text/css">*{stroke-linejoin: round; stroke-linecap: butt}</style>
 </defs>
 <g id="figure_1">
  <g id="patch_1">
   <path d="M -0 264.607687 
L 777.1425 264.607687 
L 777.1425 0 
L -0 0 
z
" style="fill: #ffffff"/>
  </g>
  <g id="axes_1">
   <g id="patch_2">
    <path d="M 86.33125 233.608 
L 376.27125 233.608 
L 376.27125 42.528 
L 86.33125 42.528 
z
" style="fill: #ffffff"/>
   </g>
   <g id="patch_3">
    <path d="M 86.33125 224.922545 
L 258.41209 224.922545 
L 258.41209 200.962671 
L 86.33125 200.962671 
z
" clip-path="url(#p85636bcc35)" style="fill: #adb5bd"/>
   </g>
   <g id="patch_4">
    <path d="M 86.33125 194.972702 
L 259.276836 194.972702 
L 259.276836 171.012828 
L 86.33125 171.012828 
z
" clip-path="url(#p85636bcc35)" style="fill: #adb5bd"/>
   </g>
   <g id="patch_5">
    <path d="M 86.33125 165.022859 
L 259.32685 165.022859 
L 259.32685 141.062984 
L 86.33125 141.062984 
z
" clip-path="url(#p85636bcc35)" style="fill: #adb5bd"/>
   </g>
   <g id="patch_6">
    <path d="M 86.33125 135.073016 
L 259.334824 135.073016 
L 259.334824 111.113141 
L 86.33125 111.113141 
z
" clip-path="url(#p85636bcc35)" style="fill: #adb5bd"/>
   </g>
   <g id="patch_7">
    <path d="M 86.33125 105.123172 
L 259.710296 105.123172 
L 259.710296 81.163298 
L 86.33125 81.163298 
z
" clip-path="url(#p85636bcc35)" style="fill: #adb5bd"/>
   </g>
   <g id="patch_8">
    <path d="M 86.33125 75.173329 
L 262.570554 75.173329 
L 262.570554 51.213455 
L 86.33125 51.213455 
z
" clip-path="url(#p85636bcc35)" style="fill: #adb5bd"/>
   </g>
   <g id="matplotlib.axis_1">
    <g id="xtick_1">
     <g id="line2d_1">
      <defs>
       <path id="m13802eee39" d="M 0 0 
L 0 3.5 
" style="stroke: #666666; stroke-width: 0.8"/>
      </defs>
      <g>
       <use xlink:href="#m13802eee39" x="86.33125" y="233.608" style="fill: #666666; stroke: #666666; stroke-width: 0.8"/>
      </g>
     </g>
     <g id="text_1">
      <!-- 0 -->
      <g style="fill: #666666" transform="translate(84.1075 246.3205) scale(0.08 -0.08)">
       <defs>
        <path id="HelveticaNeue-30" d="M 845 2234 
Q 845 2400 848 2601 
Q 851 2803 880 3004 
Q 909 3206 963 3398 
Q 1018 3590 1123 3734 
Q 1229 3878 1389 3968 
Q 1549 4058 1779 4058 
Q 2010 4058 2170 3968 
Q 2330 3878 2435 3734 
Q 2541 3590 2595 3398 
Q 2650 3206 2678 3004 
Q 2707 2803 2710 2601 
Q 2714 2400 2714 2234 
Q 2714 1978 2698 1661 
Q 2682 1344 2595 1065 
Q 2509 787 2317 595 
Q 2125 403 1779 403 
Q 1434 403 1242 595 
Q 1050 787 963 1065 
Q 877 1344 861 1661 
Q 845 1978 845 2234 
z
M 269 2227 
Q 269 1978 281 1709 
Q 294 1440 345 1184 
Q 397 928 493 701 
Q 589 474 755 301 
Q 922 128 1174 29 
Q 1427 -70 1779 -70 
Q 2138 -70 2387 29 
Q 2637 128 2803 301 
Q 2970 474 3066 701 
Q 3162 928 3213 1184 
Q 3264 1440 3277 1709 
Q 3290 1978 3290 2227 
Q 3290 2477 3277 2745 
Q 3264 3014 3213 3270 
Q 3162 3526 3066 3756 
Q 2970 3987 2803 4160 
Q 2637 4333 2384 4435 
Q 2131 4538 1779 4538 
Q 1427 4538 1174 4435 
Q 922 4333 755 4160 
Q 589 3987 493 3756 
Q 397 3526 345 3270 
Q 294 3014 281 2745 
Q 269 2477 269 2227 
z
" transform="scale(0.015625)"/>
       </defs>
       <use xlink:href="#HelveticaNeue-30"/>
      </g>
     </g>
    </g>
    <g id="xtick_2">
     <g id="line2d_2">
      <g>
       <use xlink:href="#m13802eee39" x="144.31925" y="233.608" style="fill: #666666; stroke: #666666; stroke-width: 0.8"/>
      </g>
     </g>
     <g id="text_2">
      <!-- 20 -->
      <g style="fill: #666666" transform="translate(139.87175 246.3205) scale(0.08 -0.08)">
       <defs>
        <path id="HelveticaNeue-32" d="M 282 2931 
L 826 2931 
Q 819 3136 867 3337 
Q 915 3539 1024 3699 
Q 1133 3859 1302 3958 
Q 1472 4058 1709 4058 
Q 1888 4058 2048 4000 
Q 2208 3942 2326 3833 
Q 2445 3725 2515 3574 
Q 2586 3424 2586 3238 
Q 2586 3002 2512 2822 
Q 2438 2643 2294 2489 
Q 2150 2336 1932 2185 
Q 1715 2035 1427 1856 
Q 1190 1715 972 1555 
Q 755 1395 582 1184 
Q 410 973 298 688 
Q 186 403 154 0 
L 3117 0 
L 3117 480 
L 787 480 
Q 826 691 950 854 
Q 1075 1018 1251 1158 
Q 1427 1299 1638 1424 
Q 1850 1549 2061 1677 
Q 2272 1811 2470 1958 
Q 2669 2106 2822 2288 
Q 2976 2470 3069 2700 
Q 3162 2931 3162 3232 
Q 3162 3552 3050 3795 
Q 2938 4038 2746 4201 
Q 2554 4365 2294 4451 
Q 2035 4538 1741 4538 
Q 1382 4538 1100 4416 
Q 819 4294 630 4080 
Q 442 3866 352 3571 
Q 262 3277 282 2931 
z
" transform="scale(0.015625)"/>
       </defs>
       <use xlink:href="#HelveticaNeue-32"/>
       <use xlink:href="#HelveticaNeue-30" transform="translate(55.599991 0)"/>
      </g>
     </g>
    </g>
    <g id="xtick_3">
     <g id="line2d_3">
      <g>
       <use xlink:href="#m13802eee39" x="202.30725" y="233.608" style="fill: #666666; stroke: #666666; stroke-width: 0.8"/>
      </g>
     </g>
     <g id="text_3">
      <!-- 40 -->
      <g style="fill: #666666" transform="translate(197.85975 246.3205) scale(0.08 -0.08)">
       <defs>
        <path id="HelveticaNeue-34" d="M 2170 1542 
L 646 1542 
L 2157 3763 
L 2170 3763 
L 2170 1542 
z
M 2682 1542 
L 2682 4538 
L 2246 4538 
L 179 1587 
L 179 1062 
L 2170 1062 
L 2170 0 
L 2682 0 
L 2682 1062 
L 3296 1062 
L 3296 1542 
L 2682 1542 
z
" transform="scale(0.015625)"/>
       </defs>
       <use xlink:href="#HelveticaNeue-34"/>
       <use xlink:href="#HelveticaNeue-30" transform="translate(55.599991 0)"/>
      </g>
     </g>
    </g>
    <g id="xtick_4">
     <g id="line2d_4">
      <g>
       <use xlink:href="#m13802eee39" x="260.29525" y="233.608" style="fill: #666666; stroke: #666666; stroke-width: 0.8"/>
      </g>
     </g>
     <g id="text_4">
      <!-- 60 -->
      <g style="fill: #666666" transform="translate(255.84775 246.3205) scale(0.08 -0.08)">
       <defs>
        <path id="HelveticaNeue-36" d="M 2650 3379 
L 3194 3379 
Q 3142 3942 2809 4240 
Q 2477 4538 1914 4538 
Q 1427 4538 1107 4333 
Q 787 4128 595 3789 
Q 403 3450 323 3011 
Q 243 2573 243 2106 
Q 243 1747 297 1363 
Q 352 979 518 659 
Q 685 339 992 134 
Q 1299 -70 1805 -70 
Q 2234 -70 2525 74 
Q 2816 218 2992 438 
Q 3168 659 3245 928 
Q 3322 1197 3322 1446 
Q 3322 1760 3226 2029 
Q 3130 2298 2954 2496 
Q 2778 2694 2518 2806 
Q 2259 2918 1933 2918 
Q 1562 2918 1277 2777 
Q 992 2637 800 2323 
L 787 2336 
Q 794 2598 838 2899 
Q 883 3200 1001 3459 
Q 1120 3718 1331 3888 
Q 1542 4058 1888 4058 
Q 2214 4058 2412 3872 
Q 2611 3686 2650 3379 
z
M 1830 2438 
Q 2061 2438 2233 2355 
Q 2406 2272 2521 2134 
Q 2637 1997 2691 1808 
Q 2746 1619 2746 1408 
Q 2746 1210 2685 1027 
Q 2624 845 2509 704 
Q 2394 563 2224 483 
Q 2054 403 1830 403 
Q 1606 403 1430 483 
Q 1254 563 1136 697 
Q 1018 832 954 1017 
Q 890 1203 890 1414 
Q 890 1626 950 1814 
Q 1011 2003 1132 2140 
Q 1254 2278 1427 2358 
Q 1600 2438 1830 2438 
z
" transform="scale(0.015625)"/>
       </defs>
       <use xlink:href="#HelveticaNeue-36"/>
       <use xlink:href="#HelveticaNeue-30" transform="translate(55.599991 0)"/>
      </g>
     </g>
    </g>
    <g id="xtick_5">
     <g id="line2d_5">
      <g>
       <use xlink:href="#m13802eee39" x="318.28325" y="233.608" style="fill: #666666; stroke: #666666; stroke-width: 0.8"/>
      </g>
     </g>
     <g id="text_5">
      <!-- 80 -->
      <g style="fill: #666666" transform="translate(313.83575 246.3205) scale(0.08 -0.08)">
       <defs>
        <path id="HelveticaNeue-38" d="M 992 3360 
Q 992 3533 1056 3661 
Q 1120 3789 1225 3878 
Q 1331 3968 1478 4013 
Q 1626 4058 1786 4058 
Q 2118 4058 2332 3882 
Q 2547 3706 2547 3360 
Q 2547 3014 2336 2822 
Q 2125 2630 1798 2630 
Q 1632 2630 1485 2675 
Q 1338 2720 1229 2809 
Q 1120 2899 1056 3036 
Q 992 3174 992 3360 
z
M 416 3379 
Q 416 3072 589 2813 
Q 762 2554 1050 2438 
Q 666 2304 461 2006 
Q 256 1709 256 1306 
Q 256 960 374 701 
Q 493 442 701 269 
Q 909 96 1190 13 
Q 1472 -70 1798 -70 
Q 2112 -70 2387 19 
Q 2662 109 2864 285 
Q 3066 461 3184 717 
Q 3302 973 3302 1306 
Q 3302 1728 3104 2019 
Q 2906 2310 2496 2438 
Q 2784 2566 2953 2819 
Q 3123 3072 3123 3379 
Q 3123 3597 3046 3805 
Q 2970 4013 2806 4176 
Q 2643 4339 2380 4438 
Q 2118 4538 1747 4538 
Q 1485 4538 1245 4461 
Q 1005 4384 819 4237 
Q 634 4090 525 3875 
Q 416 3661 416 3379 
z
M 832 1280 
Q 832 1478 905 1638 
Q 979 1798 1110 1913 
Q 1242 2029 1418 2089 
Q 1594 2150 1792 2150 
Q 1984 2150 2153 2083 
Q 2323 2016 2451 1901 
Q 2579 1786 2652 1629 
Q 2726 1472 2726 1286 
Q 2726 1094 2659 934 
Q 2592 774 2467 656 
Q 2342 538 2172 470 
Q 2003 403 1798 403 
Q 1376 403 1104 636 
Q 832 870 832 1280 
z
" transform="scale(0.015625)"/>
       </defs>
       <use xlink:href="#HelveticaNeue-38"/>
       <use xlink:href="#HelveticaNeue-30" transform="translate(55.599991 0)"/>
      </g>
     </g>
    </g>
    <g id="xtick_6">
     <g id="line2d_6">
      <g>
       <use xlink:href="#m13802eee39" x="376.27125" y="233.608" style="fill: #666666; stroke: #666666; stroke-width: 0.8"/>
      </g>
     </g>
     <g id="text_6">
      <!-- 100 -->
      <g style="fill: #666666" transform="translate(369.6 246.3205) scale(0.08 -0.08)">
       <defs>
        <path id="HelveticaNeue-31" d="M 2278 0 
L 2278 4538 
L 1862 4538 
Q 1818 4282 1696 4115 
Q 1574 3949 1398 3853 
Q 1222 3757 1004 3721 
Q 787 3686 557 3686 
L 557 3251 
L 1734 3251 
L 1734 0 
L 2278 0 
z
" transform="scale(0.015625)"/>
       </defs>
       <use xlink:href="#HelveticaNeue-31"/>
       <use xlink:href="#HelveticaNeue-30" transform="translate(55.599991 0)"/>
       <use xlink:href="#HelveticaNeue-30" transform="translate(111.199982 0)"/>
      </g>
     </g>
    </g>
    <g id="text_7">
     <!-- Mean final score -->
     <g style="fill: #333333" transform="translate(194.534063 259.037375) scale(0.1 -0.1)">
      <defs>
       <path id="HelveticaNeue-4d" d="M 512 4570 
L 512 0 
L 1088 0 
L 1088 3802 
L 1101 3802 
L 2528 0 
L 3046 0 
L 4474 3802 
L 4486 3802 
L 4486 0 
L 5062 0 
L 5062 4570 
L 4230 4570 
L 2784 730 
L 1344 4570 
L 512 4570 
z
" transform="scale(0.015625)"/>
       <path id="HelveticaNeue-65" d="M 2707 1971 
L 806 1971 
Q 819 2163 889 2332 
Q 960 2502 1081 2630 
Q 1203 2758 1372 2832 
Q 1542 2906 1754 2906 
Q 1958 2906 2128 2832 
Q 2298 2758 2422 2633 
Q 2547 2509 2620 2336 
Q 2694 2163 2707 1971 
z
M 3232 1050 
L 2694 1050 
Q 2624 723 2403 563 
Q 2182 403 1837 403 
Q 1568 403 1369 492 
Q 1171 582 1043 732 
Q 915 883 857 1078 
Q 800 1274 806 1491 
L 3283 1491 
Q 3296 1792 3229 2125 
Q 3162 2458 2986 2739 
Q 2810 3021 2518 3203 
Q 2227 3386 1786 3386 
Q 1446 3386 1161 3258 
Q 877 3130 669 2899 
Q 461 2669 345 2355 
Q 230 2042 230 1664 
Q 243 1286 342 966 
Q 442 646 640 416 
Q 838 186 1129 58 
Q 1421 -70 1818 -70 
Q 2381 -70 2752 211 
Q 3123 493 3232 1050 
z
" transform="scale(0.015625)"/>
       <path id="HelveticaNeue-61" d="M 3341 13 
Q 3200 -70 2950 -70 
Q 2739 -70 2614 48 
Q 2490 166 2490 435 
Q 2266 166 1968 48 
Q 1670 -70 1325 -70 
Q 1101 -70 899 -19 
Q 698 32 550 141 
Q 403 250 316 426 
Q 230 602 230 851 
Q 230 1133 326 1312 
Q 422 1491 579 1603 
Q 736 1715 937 1772 
Q 1139 1830 1350 1869 
Q 1574 1914 1776 1936 
Q 1978 1958 2131 2000 
Q 2285 2042 2374 2122 
Q 2464 2202 2464 2355 
Q 2464 2534 2397 2643 
Q 2330 2752 2224 2809 
Q 2118 2867 1987 2886 
Q 1856 2906 1728 2906 
Q 1382 2906 1152 2774 
Q 922 2643 902 2278 
L 358 2278 
Q 371 2586 486 2797 
Q 602 3008 794 3139 
Q 986 3270 1232 3328 
Q 1478 3386 1760 3386 
Q 1984 3386 2205 3354 
Q 2426 3322 2605 3222 
Q 2784 3123 2893 2944 
Q 3002 2765 3002 2477 
L 3002 774 
Q 3002 582 3024 492 
Q 3046 403 3174 403 
Q 3245 403 3341 435 
L 3341 13 
z
M 2458 1709 
Q 2355 1632 2188 1597 
Q 2022 1562 1840 1539 
Q 1658 1517 1472 1488 
Q 1286 1459 1139 1395 
Q 992 1331 899 1212 
Q 806 1094 806 890 
Q 806 755 860 662 
Q 915 570 1001 512 
Q 1088 454 1203 428 
Q 1318 403 1446 403 
Q 1715 403 1907 476 
Q 2099 550 2220 662 
Q 2342 774 2400 905 
Q 2458 1037 2458 1152 
L 2458 1709 
z
" transform="scale(0.015625)"/>
       <path id="HelveticaNeue-6e" d="M 410 3309 
L 410 0 
L 954 0 
L 954 1869 
Q 954 2093 1014 2281 
Q 1075 2470 1196 2611 
Q 1318 2752 1500 2829 
Q 1683 2906 1933 2906 
Q 2246 2906 2425 2726 
Q 2605 2547 2605 2240 
L 2605 0 
L 3149 0 
L 3149 2176 
Q 3149 2445 3094 2665 
Q 3040 2886 2905 3046 
Q 2771 3206 2553 3296 
Q 2336 3386 2010 3386 
Q 1274 3386 934 2784 
L 922 2784 
L 922 3309 
L 410 3309 
z
" transform="scale(0.015625)"/>
       <path id="HelveticaNeue-20" transform="scale(0.015625)"/>
       <path id="HelveticaNeue-66" d="M 634 2829 
L 634 0 
L 1178 0 
L 1178 2829 
L 1818 2829 
L 1818 3309 
L 1178 3309 
L 1178 3770 
Q 1178 3987 1286 4064 
Q 1395 4141 1594 4141 
Q 1664 4141 1747 4131 
Q 1830 4122 1901 4096 
L 1901 4570 
Q 1824 4595 1725 4608 
Q 1626 4621 1549 4621 
Q 1101 4621 867 4413 
Q 634 4205 634 3802 
L 634 3309 
L 77 3309 
L 77 2829 
L 634 2829 
z
" transform="scale(0.015625)"/>
       <path id="HelveticaNeue-69" d="M 986 3904 
L 986 4570 
L 442 4570 
L 442 3904 
L 986 3904 
z
M 442 3309 
L 442 0 
L 986 0 
L 986 3309 
L 442 3309 
z
" transform="scale(0.015625)"/>
       <path id="HelveticaNeue-6c" d="M 442 4570 
L 442 0 
L 986 0 
L 986 4570 
L 442 4570 
z
" transform="scale(0.015625)"/>
       <path id="HelveticaNeue-73" d="M 742 1043 
L 198 1043 
Q 211 736 326 521 
Q 442 307 634 176 
Q 826 45 1075 -12 
Q 1325 -70 1600 -70 
Q 1850 -70 2102 -22 
Q 2355 26 2556 147 
Q 2758 269 2883 467 
Q 3008 666 3008 966 
Q 3008 1203 2915 1363 
Q 2822 1523 2672 1628 
Q 2522 1734 2326 1798 
Q 2131 1862 1926 1907 
Q 1734 1952 1542 1993 
Q 1350 2035 1196 2096 
Q 1043 2157 944 2249 
Q 845 2342 845 2483 
Q 845 2611 909 2691 
Q 973 2771 1075 2819 
Q 1178 2867 1302 2886 
Q 1427 2906 1549 2906 
Q 1683 2906 1814 2877 
Q 1946 2848 2054 2784 
Q 2163 2720 2233 2614 
Q 2304 2509 2317 2349 
L 2861 2349 
Q 2842 2650 2733 2851 
Q 2624 3053 2441 3171 
Q 2259 3290 2022 3338 
Q 1786 3386 1504 3386 
Q 1286 3386 1065 3331 
Q 845 3277 669 3165 
Q 493 3053 381 2873 
Q 269 2694 269 2445 
Q 269 2125 429 1945 
Q 589 1766 829 1667 
Q 1069 1568 1350 1513 
Q 1632 1459 1872 1392 
Q 2112 1325 2272 1216 
Q 2432 1107 2432 896 
Q 2432 742 2355 643 
Q 2278 544 2160 493 
Q 2042 442 1901 422 
Q 1760 403 1632 403 
Q 1466 403 1309 435 
Q 1152 467 1027 540 
Q 902 614 825 739 
Q 749 864 742 1043 
z
" transform="scale(0.015625)"/>
       <path id="HelveticaNeue-63" d="M 2656 2246 
L 3219 2246 
Q 3187 2541 3065 2755 
Q 2944 2970 2755 3110 
Q 2566 3251 2320 3318 
Q 2074 3386 1792 3386 
Q 1402 3386 1107 3248 
Q 813 3110 617 2870 
Q 422 2630 326 2307 
Q 230 1984 230 1613 
Q 230 1242 329 931 
Q 429 621 624 397 
Q 819 173 1110 51 
Q 1402 -70 1779 -70 
Q 2413 -70 2781 262 
Q 3149 595 3238 1210 
L 2682 1210 
Q 2630 826 2403 614 
Q 2176 403 1773 403 
Q 1517 403 1331 505 
Q 1146 608 1030 777 
Q 915 947 860 1164 
Q 806 1382 806 1613 
Q 806 1862 857 2096 
Q 909 2330 1027 2509 
Q 1146 2688 1344 2797 
Q 1542 2906 1837 2906 
Q 2182 2906 2387 2733 
Q 2592 2560 2656 2246 
z
" transform="scale(0.015625)"/>
       <path id="HelveticaNeue-6f" d="M 806 1651 
Q 806 1952 886 2185 
Q 966 2419 1107 2579 
Q 1248 2739 1437 2822 
Q 1626 2906 1837 2906 
Q 2048 2906 2237 2822 
Q 2426 2739 2566 2579 
Q 2707 2419 2787 2185 
Q 2867 1952 2867 1651 
Q 2867 1350 2787 1116 
Q 2707 883 2566 726 
Q 2426 570 2237 486 
Q 2048 403 1837 403 
Q 1626 403 1437 486 
Q 1248 570 1107 726 
Q 966 883 886 1116 
Q 806 1350 806 1651 
z
M 230 1651 
Q 230 1286 332 972 
Q 435 659 640 425 
Q 845 192 1145 61 
Q 1446 -70 1837 -70 
Q 2234 -70 2531 61 
Q 2829 192 3033 425 
Q 3238 659 3340 972 
Q 3443 1286 3443 1651 
Q 3443 2016 3340 2333 
Q 3238 2650 3033 2883 
Q 2829 3117 2531 3251 
Q 2234 3386 1837 3386 
Q 1446 3386 1145 3251 
Q 845 3117 640 2883 
Q 435 2650 332 2333 
Q 230 2016 230 1651 
z
" transform="scale(0.015625)"/>
       <path id="HelveticaNeue-72" d="M 390 3309 
L 390 0 
L 934 0 
L 934 1472 
Q 934 1792 998 2038 
Q 1062 2285 1203 2457 
Q 1344 2630 1574 2720 
Q 1805 2810 2131 2810 
L 2131 3386 
Q 1690 3398 1402 3206 
Q 1114 3014 915 2611 
L 902 2611 
L 902 3309 
L 390 3309 
z
" transform="scale(0.015625)"/>
      </defs>
      <use xlink:href="#HelveticaNeue-4d"/>
      <use xlink:href="#HelveticaNeue-65" transform="translate(87.099991 0)"/>
      <use xlink:href="#HelveticaNeue-61" transform="translate(140.799988 0)"/>
      <use xlink:href="#HelveticaNeue-6e" transform="translate(194.499985 0)"/>
      <use xlink:href="#HelveticaNeue-20" transform="translate(250.099976 0)"/>
      <use xlink:href="#HelveticaNeue-66" transform="translate(277.899963 0)"/>
      <use xlink:href="#HelveticaNeue-69" transform="translate(307.499954 0)"/>
      <use xlink:href="#HelveticaNeue-6e" transform="translate(329.699951 0)"/>
      <use xlink:href="#HelveticaNeue-61" transform="translate(385.299942 0)"/>
      <use xlink:href="#HelveticaNeue-6c" transform="translate(438.999939 0)"/>
      <use xlink:href="#HelveticaNeue-20" transform="translate(461.199936 0)"/>
      <use xlink:href="#HelveticaNeue-73" transform="translate(488.999924 0)"/>
      <use xlink:href="#HelveticaNeue-63" transform="translate(538.999908 0)"/>
      <use xlink:href="#HelveticaNeue-6f" transform="translate(592.699905 0)"/>
      <use xlink:href="#HelveticaNeue-72" transform="translate(650.099899 0)"/>
      <use xlink:href="#HelveticaNeue-65" transform="translate(681.649887 0)"/>
     </g>
    </g>
   </g>
   <g id="matplotlib.axis_2">
    <g id="ytick_1">
     <g id="line2d_7">
      <defs>
       <path id="mb76271a737" d="M 0 0 
L -3.5 0 
" style="stroke: #666666; stroke-width: 0.8"/>
      </defs>
      <g>
       <use xlink:href="#mb76271a737" x="86.33125" y="212.942608" style="fill: #666666; stroke: #666666; stroke-width: 0.8"/>
      </g>
     </g>
     <g id="text_8">
      <!-- Python Programming -->
      <g style="fill: #666666" transform="translate(3.6 215.798858) scale(0.08 -0.08)">
       <defs>
        <path id="HelveticaNeue-50" d="M 1107 2381 
L 1107 4058 
L 2298 4058 
Q 2816 4058 3056 3843 
Q 3296 3629 3296 3219 
Q 3296 2810 3056 2592 
Q 2816 2374 2298 2381 
L 1107 2381 
z
M 499 4570 
L 499 0 
L 1107 0 
L 1107 1869 
L 2502 1869 
Q 3194 1862 3549 2220 
Q 3904 2579 3904 3219 
Q 3904 3859 3549 4214 
Q 3194 4570 2502 4570 
L 499 4570 
z
" transform="scale(0.015625)"/>
        <path id="HelveticaNeue-79" d="M 1709 -442 
Q 1613 -685 1520 -851 
Q 1427 -1018 1315 -1123 
Q 1203 -1229 1065 -1277 
Q 928 -1325 749 -1325 
Q 653 -1325 557 -1312 
Q 461 -1299 371 -1267 
L 371 -768 
Q 442 -800 534 -822 
Q 627 -845 691 -845 
Q 858 -845 970 -765 
Q 1082 -685 1139 -538 
L 1363 19 
L 51 3309 
L 666 3309 
L 1632 602 
L 1645 602 
L 2573 3309 
L 3149 3309 
L 1709 -442 
z
" transform="scale(0.015625)"/>
        <path id="HelveticaNeue-74" d="M 1165 3309 
L 1165 4301 
L 621 4301 
L 621 3309 
L 58 3309 
L 58 2829 
L 621 2829 
L 621 723 
Q 621 493 665 352 
Q 710 211 803 134 
Q 896 58 1046 29 
Q 1197 0 1408 0 
L 1824 0 
L 1824 480 
L 1574 480 
Q 1446 480 1366 489 
Q 1286 499 1241 531 
Q 1197 563 1181 620 
Q 1165 678 1165 774 
L 1165 2829 
L 1824 2829 
L 1824 3309 
L 1165 3309 
z
" transform="scale(0.015625)"/>
        <path id="HelveticaNeue-68" d="M 410 4570 
L 410 0 
L 954 0 
L 954 1869 
Q 954 2093 1014 2281 
Q 1075 2470 1196 2611 
Q 1318 2752 1500 2829 
Q 1683 2906 1933 2906 
Q 2246 2906 2425 2726 
Q 2605 2547 2605 2240 
L 2605 0 
L 3149 0 
L 3149 2176 
Q 3149 2445 3094 2665 
Q 3040 2886 2905 3046 
Q 2771 3206 2553 3296 
Q 2336 3386 2010 3386 
Q 1862 3386 1705 3354 
Q 1549 3322 1405 3254 
Q 1261 3187 1145 3081 
Q 1030 2976 966 2822 
L 954 2822 
L 954 4570 
L 410 4570 
z
" transform="scale(0.015625)"/>
        <path id="HelveticaNeue-67" d="M 3264 282 
L 3264 3309 
L 2752 3309 
L 2752 2835 
L 2746 2835 
Q 2598 3110 2336 3248 
Q 2074 3386 1760 3386 
Q 1331 3386 1036 3222 
Q 742 3059 563 2806 
Q 384 2554 307 2243 
Q 230 1933 230 1638 
Q 230 1299 323 995 
Q 416 691 601 464 
Q 787 237 1062 102 
Q 1338 -32 1709 -32 
Q 2029 -32 2313 112 
Q 2598 256 2739 563 
L 2752 563 
L 2752 346 
Q 2752 70 2697 -160 
Q 2643 -390 2521 -553 
Q 2400 -717 2214 -809 
Q 2029 -902 1760 -902 
Q 1626 -902 1478 -873 
Q 1331 -845 1206 -781 
Q 1082 -717 995 -614 
Q 909 -512 902 -365 
L 358 -365 
Q 371 -634 499 -819 
Q 627 -1005 822 -1120 
Q 1018 -1235 1258 -1286 
Q 1498 -1338 1728 -1338 
Q 2522 -1338 2893 -934 
Q 3264 -531 3264 282 
z
M 1741 442 
Q 1472 442 1293 554 
Q 1114 666 1005 848 
Q 896 1030 851 1254 
Q 806 1478 806 1702 
Q 806 1939 860 2156 
Q 915 2374 1033 2540 
Q 1152 2707 1337 2806 
Q 1523 2906 1786 2906 
Q 2042 2906 2221 2803 
Q 2400 2701 2512 2531 
Q 2624 2362 2675 2150 
Q 2726 1939 2726 1722 
Q 2726 1491 2672 1260 
Q 2618 1030 2502 848 
Q 2387 666 2198 554 
Q 2010 442 1741 442 
z
" transform="scale(0.015625)"/>
        <path id="HelveticaNeue-6d" d="M 410 3309 
L 410 0 
L 954 0 
L 954 2061 
Q 954 2157 1002 2301 
Q 1050 2445 1155 2579 
Q 1261 2714 1430 2810 
Q 1600 2906 1837 2906 
Q 2022 2906 2140 2851 
Q 2259 2797 2329 2697 
Q 2400 2598 2429 2464 
Q 2458 2330 2458 2170 
L 2458 0 
L 3002 0 
L 3002 2061 
Q 3002 2445 3232 2675 
Q 3462 2906 3866 2906 
Q 4064 2906 4189 2848 
Q 4314 2790 4384 2691 
Q 4454 2592 4480 2457 
Q 4506 2323 4506 2170 
L 4506 0 
L 5050 0 
L 5050 2426 
Q 5050 2682 4970 2864 
Q 4890 3046 4746 3161 
Q 4602 3277 4400 3331 
Q 4198 3386 3949 3386 
Q 3622 3386 3350 3238 
Q 3078 3091 2912 2822 
Q 2810 3130 2560 3258 
Q 2310 3386 2003 3386 
Q 1306 3386 934 2822 
L 922 2822 
L 922 3309 
L 410 3309 
z
" transform="scale(0.015625)"/>
       </defs>
       <use xlink:href="#HelveticaNeue-50"/>
       <use xlink:href="#HelveticaNeue-79" transform="translate(64.799988 0)"/>
       <use xlink:href="#HelveticaNeue-74" transform="translate(114.799973 0)"/>
       <use xlink:href="#HelveticaNeue-68" transform="translate(146.299957 0)"/>
       <use xlink:href="#HelveticaNeue-6f" transform="translate(201.899948 0)"/>
       <use xlink:href="#HelveticaNeue-6e" transform="translate(259.299942 0)"/>
       <use xlink:href="#HelveticaNeue-20" transform="translate(314.899933 0)"/>
       <use xlink:href="#HelveticaNeue-50" transform="translate(342.699921 0)"/>
       <use xlink:href="#HelveticaNeue-72" transform="translate(407.499908 0)"/>
       <use xlink:href="#HelveticaNeue-6f" transform="translate(439.049896 0)"/>
       <use xlink:href="#HelveticaNeue-67" transform="translate(496.44989 0)"/>
       <use xlink:href="#HelveticaNeue-72" transform="translate(553.849884 0)"/>
       <use xlink:href="#HelveticaNeue-61" transform="translate(587.149872 0)"/>
       <use xlink:href="#HelveticaNeue-6d" transform="translate(640.849869 0)"/>
       <use xlink:href="#HelveticaNeue-6d" transform="translate(726.149857 0)"/>
       <use xlink:href="#HelveticaNeue-69" transform="translate(811.449844 0)"/>
       <use xlink:href="#HelveticaNeue-6e" transform="translate(833.649841 0)"/>
       <use xlink:href="#HelveticaNeue-67" transform="translate(889.249832 0)"/>
      </g>
     </g>
    </g>
    <g id="ytick_2">
     <g id="line2d_8">
      <g>
       <use xlink:href="#mb76271a737" x="86.33125" y="182.992765" style="fill: #666666; stroke: #666666; stroke-width: 0.8"/>
      </g>
     </g>
     <g id="text_9">
      <!-- Databases -->
      <g style="fill: #666666" transform="translate(41.25 185.849015) scale(0.08 -0.08)">
       <defs>
        <path id="HelveticaNeue-44" d="M 1107 512 
L 1107 4058 
L 2131 4058 
Q 2554 4058 2842 3939 
Q 3130 3821 3312 3593 
Q 3494 3366 3574 3043 
Q 3654 2720 3654 2310 
Q 3654 1888 3568 1590 
Q 3482 1293 3347 1094 
Q 3213 896 3043 781 
Q 2874 666 2701 605 
Q 2528 544 2374 528 
Q 2221 512 2118 512 
L 1107 512 
z
M 499 4570 
L 499 0 
L 2067 0 
Q 2637 0 3053 160 
Q 3469 320 3737 624 
Q 4006 928 4134 1373 
Q 4262 1818 4262 2394 
Q 4262 3494 3692 4032 
Q 3123 4570 2067 4570 
L 499 4570 
z
" transform="scale(0.015625)"/>
        <path id="HelveticaNeue-62" d="M 429 4570 
L 429 0 
L 973 0 
L 973 442 
L 986 442 
Q 1075 294 1206 195 
Q 1338 96 1485 38 
Q 1632 -19 1782 -44 
Q 1933 -70 2054 -70 
Q 2432 -70 2717 64 
Q 3002 198 3190 432 
Q 3379 666 3472 979 
Q 3565 1293 3565 1645 
Q 3565 1997 3469 2310 
Q 3373 2624 3184 2864 
Q 2995 3104 2710 3245 
Q 2426 3386 2042 3386 
Q 1696 3386 1408 3261 
Q 1120 3136 986 2861 
L 973 2861 
L 973 4570 
L 429 4570 
z
M 2989 1683 
Q 2989 1440 2937 1209 
Q 2886 979 2771 800 
Q 2656 621 2467 512 
Q 2278 403 1997 403 
Q 1715 403 1516 508 
Q 1318 614 1193 787 
Q 1069 960 1011 1187 
Q 954 1414 954 1658 
Q 954 1888 1008 2112 
Q 1062 2336 1184 2512 
Q 1306 2688 1498 2797 
Q 1690 2906 1965 2906 
Q 2227 2906 2422 2803 
Q 2618 2701 2742 2528 
Q 2867 2355 2928 2134 
Q 2989 1914 2989 1683 
z
" transform="scale(0.015625)"/>
       </defs>
       <use xlink:href="#HelveticaNeue-44"/>
       <use xlink:href="#HelveticaNeue-61" transform="translate(70.399994 0)"/>
       <use xlink:href="#HelveticaNeue-74" transform="translate(124.099991 0)"/>
       <use xlink:href="#HelveticaNeue-61" transform="translate(155.599976 0)"/>
       <use xlink:href="#HelveticaNeue-62" transform="translate(209.299973 0)"/>
       <use xlink:href="#HelveticaNeue-61" transform="translate(268.59996 0)"/>
       <use xlink:href="#HelveticaNeue-73" transform="translate(322.299957 0)"/>
       <use xlink:href="#HelveticaNeue-65" transform="translate(372.299942 0)"/>
       <use xlink:href="#HelveticaNeue-73" transform="translate(425.999939 0)"/>
      </g>
     </g>
    </g>
    <g id="ytick_3">
     <g id="line2d_9">
      <g>
       <use xlink:href="#mb76271a737" x="86.33125" y="153.042922" style="fill: #666666; stroke: #666666; stroke-width: 0.8"/>
      </g>
     </g>
     <g id="text_10">
      <!-- Linear Algebra -->
      <g style="fill: #666666" transform="translate(27.6275 155.899172) scale(0.08 -0.08)">
       <defs>
        <path id="HelveticaNeue-4c" d="M 499 4570 
L 499 0 
L 3526 0 
L 3526 512 
L 1107 512 
L 1107 4570 
L 499 4570 
z
" transform="scale(0.015625)"/>
        <path id="HelveticaNeue-41" d="M 1286 1888 
L 2061 4019 
L 2074 4019 
L 2835 1888 
L 1286 1888 
z
M 1741 4570 
L -38 0 
L 582 0 
L 1094 1376 
L 3027 1376 
L 3526 0 
L 4198 0 
L 2413 4570 
L 1741 4570 
z
" transform="scale(0.015625)"/>
       </defs>
       <use xlink:href="#HelveticaNeue-4c"/>
       <use xlink:href="#HelveticaNeue-69" transform="translate(55.599991 0)"/>
       <use xlink:href="#HelveticaNeue-6e" transform="translate(77.799988 0)"/>
       <use xlink:href="#HelveticaNeue-65" transform="translate(133.399979 0)"/>
       <use xlink:href="#HelveticaNeue-61" transform="translate(187.099976 0)"/>
       <use xlink:href="#HelveticaNeue-72" transform="translate(240.799973 0)"/>
       <use xlink:href="#HelveticaNeue-20" transform="translate(274.09996 0)"/>
       <use xlink:href="#HelveticaNeue-41" transform="translate(301.899948 0)"/>
       <use xlink:href="#HelveticaNeue-6c" transform="translate(366.699936 0)"/>
       <use xlink:href="#HelveticaNeue-67" transform="translate(388.899933 0)"/>
       <use xlink:href="#HelveticaNeue-65" transform="translate(446.299927 0)"/>
       <use xlink:href="#HelveticaNeue-62" transform="translate(499.999924 0)"/>
       <use xlink:href="#HelveticaNeue-72" transform="translate(559.299911 0)"/>
       <use xlink:href="#HelveticaNeue-61" transform="translate(592.599899 0)"/>
      </g>
     </g>
    </g>
    <g id="ytick_4">
     <g id="line2d_10">
      <g>
       <use xlink:href="#mb76271a737" x="86.33125" y="123.093078" style="fill: #666666; stroke: #666666; stroke-width: 0.8"/>
      </g>
     </g>
     <g id="text_11">
      <!-- Data Structures -->
      <g style="fill: #666666" transform="translate(23.46375 125.949328) scale(0.08 -0.08)">
       <defs>
        <path id="HelveticaNeue-53" d="M 3142 3232 
L 3718 3232 
Q 3706 3610 3574 3882 
Q 3443 4154 3216 4333 
Q 2989 4512 2688 4595 
Q 2387 4678 2035 4678 
Q 1722 4678 1424 4598 
Q 1126 4518 892 4355 
Q 659 4192 518 3939 
Q 378 3686 378 3341 
Q 378 3027 502 2819 
Q 627 2611 835 2480 
Q 1043 2349 1305 2269 
Q 1568 2189 1840 2128 
Q 2112 2067 2374 2009 
Q 2637 1952 2845 1859 
Q 3053 1766 3177 1619 
Q 3302 1472 3302 1235 
Q 3302 986 3200 826 
Q 3098 666 2931 573 
Q 2765 480 2557 441 
Q 2349 403 2144 403 
Q 1888 403 1645 467 
Q 1402 531 1219 665 
Q 1037 800 925 1008 
Q 813 1216 813 1504 
L 237 1504 
Q 237 1088 387 784 
Q 538 480 797 285 
Q 1056 90 1398 -6 
Q 1741 -102 2125 -102 
Q 2438 -102 2755 -28 
Q 3072 45 3328 208 
Q 3584 371 3747 630 
Q 3910 890 3910 1254 
Q 3910 1594 3785 1818 
Q 3661 2042 3453 2189 
Q 3245 2336 2982 2422 
Q 2720 2509 2448 2573 
Q 2176 2637 1913 2691 
Q 1651 2746 1443 2829 
Q 1235 2912 1110 3043 
Q 986 3174 986 3386 
Q 986 3610 1072 3760 
Q 1158 3910 1302 4000 
Q 1446 4090 1632 4128 
Q 1818 4166 2010 4166 
Q 2483 4166 2787 3945 
Q 3091 3725 3142 3232 
z
" transform="scale(0.015625)"/>
        <path id="HelveticaNeue-75" d="M 3149 0 
L 3149 3309 
L 2605 3309 
L 2605 1440 
Q 2605 1216 2544 1027 
Q 2483 838 2361 697 
Q 2240 557 2057 480 
Q 1875 403 1626 403 
Q 1312 403 1133 582 
Q 954 762 954 1069 
L 954 3309 
L 410 3309 
L 410 1133 
Q 410 864 464 643 
Q 518 422 652 262 
Q 787 102 1004 16 
Q 1222 -70 1549 -70 
Q 1914 -70 2182 74 
Q 2451 218 2624 525 
L 2637 525 
L 2637 0 
L 3149 0 
z
" transform="scale(0.015625)"/>
       </defs>
       <use xlink:href="#HelveticaNeue-44"/>
       <use xlink:href="#HelveticaNeue-61" transform="translate(70.399994 0)"/>
       <use xlink:href="#HelveticaNeue-74" transform="translate(124.099991 0)"/>
       <use xlink:href="#HelveticaNeue-61" transform="translate(155.599976 0)"/>
       <use xlink:href="#HelveticaNeue-20" transform="translate(209.299973 0)"/>
       <use xlink:href="#HelveticaNeue-53" transform="translate(237.09996 0)"/>
       <use xlink:href="#HelveticaNeue-74" transform="translate(301.899948 0)"/>
       <use xlink:href="#HelveticaNeue-72" transform="translate(333.399933 0)"/>
       <use xlink:href="#HelveticaNeue-75" transform="translate(366.699921 0)"/>
       <use xlink:href="#HelveticaNeue-63" transform="translate(422.299911 0)"/>
       <use xlink:href="#HelveticaNeue-74" transform="translate(475.999908 0)"/>
       <use xlink:href="#HelveticaNeue-75" transform="translate(507.499893 0)"/>
       <use xlink:href="#HelveticaNeue-72" transform="translate(563.099884 0)"/>
       <use xlink:href="#HelveticaNeue-65" transform="translate(594.649872 0)"/>
       <use xlink:href="#HelveticaNeue-73" transform="translate(648.349869 0)"/>
      </g>
     </g>
    </g>
    <g id="ytick_5">
     <g id="line2d_11">
      <g>
       <use xlink:href="#mb76271a737" x="86.33125" y="93.143235" style="fill: #666666; stroke: #666666; stroke-width: 0.8"/>
      </g>
     </g>
     <g id="text_12">
      <!-- Statistics -->
      <g style="fill: #666666" transform="translate(46.4425 95.999485) scale(0.08 -0.08)">
       <use xlink:href="#HelveticaNeue-53"/>
       <use xlink:href="#HelveticaNeue-74" transform="translate(64.799988 0)"/>
       <use xlink:href="#HelveticaNeue-61" transform="translate(96.299973 0)"/>
       <use xlink:href="#HelveticaNeue-74" transform="translate(149.999969 0)"/>
       <use xlink:href="#HelveticaNeue-69" transform="translate(181.499954 0)"/>
       <use xlink:href="#HelveticaNeue-73" transform="translate(203.699951 0)"/>
       <use xlink:href="#HelveticaNeue-74" transform="translate(253.699936 0)"/>
       <use xlink:href="#HelveticaNeue-69" transform="translate(285.199921 0)"/>
       <use xlink:href="#HelveticaNeue-63" transform="translate(307.399918 0)"/>
       <use xlink:href="#HelveticaNeue-73" transform="translate(361.099915 0)"/>
      </g>
     </g>
    </g>
    <g id="ytick_6">
     <g id="line2d_12">
      <g>
       <use xlink:href="#mb76271a737" x="86.33125" y="63.193392" style="fill: #666666; stroke: #666666; stroke-width: 0.8"/>
      </g>
     </g>
     <g id="text_13">
      <!-- Machine Learning -->
      <g style="fill: #666666" transform="translate(15.4725 66.049642) scale(0.08 -0.08)">
       <use xlink:href="#HelveticaNeue-4d"/>
       <use xlink:href="#HelveticaNeue-61" transform="translate(87.099991 0)"/>
       <use xlink:href="#HelveticaNeue-63" transform="translate(140.799988 0)"/>
       <use xlink:href="#HelveticaNeue-68" transform="translate(194.499985 0)"/>
       <use xlink:href="#HelveticaNeue-69" transform="translate(250.099976 0)"/>
       <use xlink:href="#HelveticaNeue-6e" transform="translate(272.299973 0)"/>
       <use xlink:href="#HelveticaNeue-65" transform="translate(327.899963 0)"/>
       <use xlink:href="#HelveticaNeue-20" transform="translate(381.59996 0)"/>
       <use xlink:href="#HelveticaNeue-4c" transform="translate(409.399948 0)"/>
       <use xlink:href="#HelveticaNeue-65" transform="translate(464.999939 0)"/>
       <use xlink:href="#HelveticaNeue-61" transform="translate(518.699936 0)"/>
       <use xlink:href="#HelveticaNeue-72" transform="translate(572.399933 0)"/>
       <use xlink:href="#HelveticaNeue-6e" transform="translate(607.449921 0)"/>
       <use xlink:href="#HelveticaNeue-69" transform="translate(663.049911 0)"/>
       <use xlink:href="#HelveticaNeue-6e" transform="translate(685.249908 0)"/>
       <use xlink:href="#HelveticaNeue-67" transform="translate(740.849899 0)"/>
      </g>
     </g>
    </g>
   </g>
   <g id="patch_9">
    <path d="M 86.33125 233.608 
L 86.33125 42.528 
" style="fill: none; stroke: #bbbbbb; stroke-width: 0.8; stroke-linejoin: miter; stroke-linecap: square"/>
   </g>
   <g id="patch_10">
    <path d="M 86.33125 233.608 
L 376.27125 233.608 
" style="fill: none; stroke: #bbbbbb; stroke-width: 0.8; stroke-linejoin: miter; stroke-linecap: square"/>
   </g>
   <g id="text_14">
    <!-- No preattentive signal -->
    <g style="fill: #1e293b" transform="translate(177.716641 36.528) scale(0.11 -0.11)">
     <defs>
      <path id="HelveticaNeue-4e" d="M 493 4570 
L 493 0 
L 1069 0 
L 1069 3667 
L 1082 3667 
L 3469 0 
L 4134 0 
L 4134 4570 
L 3558 4570 
L 3558 864 
L 3546 864 
L 1139 4570 
L 493 4570 
z
" transform="scale(0.015625)"/>
      <path id="HelveticaNeue-70" d="M 429 3309 
L 429 -1261 
L 973 -1261 
L 973 442 
L 986 442 
Q 1075 294 1206 195 
Q 1338 96 1485 38 
Q 1632 -19 1782 -44 
Q 1933 -70 2054 -70 
Q 2432 -70 2717 64 
Q 3002 198 3190 432 
Q 3379 666 3472 979 
Q 3565 1293 3565 1645 
Q 3565 1997 3469 2310 
Q 3373 2624 3184 2864 
Q 2995 3104 2710 3245 
Q 2426 3386 2042 3386 
Q 1696 3386 1408 3261 
Q 1120 3136 986 2861 
L 973 2861 
L 973 3309 
L 429 3309 
z
M 2989 1683 
Q 2989 1440 2937 1209 
Q 2886 979 2771 800 
Q 2656 621 2467 512 
Q 2278 403 1997 403 
Q 1715 403 1516 508 
Q 1318 614 1193 787 
Q 1069 960 1011 1187 
Q 954 1414 954 1658 
Q 954 1888 1008 2112 
Q 1062 2336 1184 2512 
Q 1306 2688 1498 2797 
Q 1690 2906 1965 2906 
Q 2227 2906 2422 2803 
Q 2618 2701 2742 2528 
Q 2867 2355 2928 2134 
Q 2989 1914 2989 1683 
z
" transform="scale(0.015625)"/>
      <path id="HelveticaNeue-76" d="M 1901 0 
L 3110 3309 
L 2541 3309 
L 1638 550 
L 1626 550 
L 698 3309 
L 90 3309 
L 1318 0 
L 1901 0 
z
" transform="scale(0.015625)"/>
     </defs>
     <use xlink:href="#HelveticaNeue-4e"/>
     <use xlink:href="#HelveticaNeue-6f" transform="translate(72.199982 0)"/>
     <use xlink:href="#HelveticaNeue-20" transform="translate(129.599976 0)"/>
     <use xlink:href="#HelveticaNeue-70" transform="translate(157.399963 0)"/>
     <use xlink:href="#HelveticaNeue-72" transform="translate(216.699951 0)"/>
     <use xlink:href="#HelveticaNeue-65" transform="translate(248.249939 0)"/>
     <use xlink:href="#HelveticaNeue-61" transform="translate(301.949936 0)"/>
     <use xlink:href="#HelveticaNeue-74" transform="translate(355.649933 0)"/>
     <use xlink:href="#HelveticaNeue-74" transform="translate(387.149918 0)"/>
     <use xlink:href="#HelveticaNeue-65" transform="translate(418.649902 0)"/>
     <use xlink:href="#HelveticaNeue-6e" transform="translate(472.349899 0)"/>
     <use xlink:href="#HelveticaNeue-74" transform="translate(527.94989 0)"/>
     <use xlink:href="#HelveticaNeue-69" transform="translate(559.449875 0)"/>
     <use xlink:href="#HelveticaNeue-76" transform="translate(581.649872 0)"/>
     <use xlink:href="#HelveticaNeue-65" transform="translate(631.649857 0)"/>
     <use xlink:href="#HelveticaNeue-20" transform="translate(685.349854 0)"/>
     <use xlink:href="#HelveticaNeue-73" transform="translate(713.149841 0)"/>
     <use xlink:href="#HelveticaNeue-69" transform="translate(763.149826 0)"/>
     <use xlink:href="#HelveticaNeue-67" transform="translate(785.349823 0)"/>
     <use xlink:href="#HelveticaNeue-6e" transform="translate(842.749817 0)"/>
     <use xlink:href="#HelveticaNeue-61" transform="translate(898.349808 0)"/>
     <use xlink:href="#HelveticaNeue-6c" transform="translate(952.049805 0)"/>
    </g>
   </g>
  </g>
  <g id="axes_2">
   <g id="patch_11">
    <path d="M 476.93125 233.608 
L 766.87125 233.608 
L 766.87125 42.528 
L 476.93125 42.528 
z
" style="fill: #ffffff"/>
   </g>
   <g id="patch_12">
    <path d="M 476.93125 224.922545 
L 649.01209 224.922545 
L 649.01209 200.962671 
L 476.93125 200.962671 
z
" clip-path="url(#p8edd9b6004)" style="fill: #adb5bd"/>
   </g>
   <g id="patch_13">
    <path d="M 476.93125 194.972702 
L 649.876836 194.972702 
L 649.876836 171.012828 
L 476.93125 171.012828 
z
" clip-path="url(#p8edd9b6004)" style="fill: #adb5bd"/>
   </g>
   <g id="patch_14">
    <path d="M 476.93125 165.022859 
L 649.92685 165.022859 
L 649.92685 141.062984 
L 476.93125 141.062984 
z
" clip-path="url(#p8edd9b6004)" style="fill: #adb5bd"/>
   </g>
   <g id="patch_15">
    <path d="M 476.93125 135.073016 
L 649.934824 135.073016 
L 649.934824 111.113141 
L 476.93125 111.113141 
z
" clip-path="url(#p8edd9b6004)" style="fill: #adb5bd"/>
   </g>
   <g id="patch_16">
    <path d="M 476.93125 105.123172 
L 650.310296 105.123172 
L 650.310296 81.163298 
L 476.93125 81.163298 
z
" clip-path="url(#p8edd9b6004)" style="fill: #adb5bd"/>
   </g>
   <g id="patch_17">
    <path d="M 476.93125 75.173329 
L 653.170554 75.173329 
L 653.170554 51.213455 
L 476.93125 51.213455 
z
" clip-path="url(#p8edd9b6004)" style="fill: #009e73"/>
   </g>
   <g id="matplotlib.axis_3">
    <g id="xtick_7">
     <g id="line2d_13">
      <g>
       <use xlink:href="#m13802eee39" x="476.93125" y="233.608" style="fill: #666666; stroke: #666666; stroke-width: 0.8"/>
      </g>
     </g>
     <g id="text_15">
      <!-- 0 -->
      <g style="fill: #666666" transform="translate(474.7075 246.3205) scale(0.08 -0.08)">
       <use xlink:href="#HelveticaNeue-30"/>
      </g>
     </g>
    </g>
    <g id="xtick_8">
     <g id="line2d_14">
      <g>
       <use xlink:href="#m13802eee39" x="534.91925" y="233.608" style="fill: #666666; stroke: #666666; stroke-width: 0.8"/>
      </g>
     </g>
     <g id="text_16">
      <!-- 20 -->
      <g style="fill: #666666" transform="translate(530.47175 246.3205) scale(0.08 -0.08)">
       <use xlink:href="#HelveticaNeue-32"/>
       <use xlink:href="#HelveticaNeue-30" transform="translate(55.599991 0)"/>
      </g>
     </g>
    </g>
    <g id="xtick_9">
     <g id="line2d_15">
      <g>
       <use xlink:href="#m13802eee39" x="592.90725" y="233.608" style="fill: #666666; stroke: #666666; stroke-width: 0.8"/>
      </g>
     </g>
     <g id="text_17">
      <!-- 40 -->
      <g style="fill: #666666" transform="translate(588.45975 246.3205) scale(0.08 -0.08)">
       <use xlink:href="#HelveticaNeue-34"/>
       <use xlink:href="#HelveticaNeue-30" transform="translate(55.599991 0)"/>
      </g>
     </g>
    </g>
    <g id="xtick_10">
     <g id="line2d_16">
      <g>
       <use xlink:href="#m13802eee39" x="650.89525" y="233.608" style="fill: #666666; stroke: #666666; stroke-width: 0.8"/>
      </g>
     </g>
     <g id="text_18">
      <!-- 60 -->
      <g style="fill: #666666" transform="translate(646.44775 246.3205) scale(0.08 -0.08)">
       <use xlink:href="#HelveticaNeue-36"/>
       <use xlink:href="#HelveticaNeue-30" transform="translate(55.599991 0)"/>
      </g>
     </g>
    </g>
    <g id="xtick_11">
     <g id="line2d_17">
      <g>
       <use xlink:href="#m13802eee39" x="708.88325" y="233.608" style="fill: #666666; stroke: #666666; stroke-width: 0.8"/>
      </g>
     </g>
     <g id="text_19">
      <!-- 80 -->
      <g style="fill: #666666" transform="translate(704.43575 246.3205) scale(0.08 -0.08)">
       <use xlink:href="#HelveticaNeue-38"/>
       <use xlink:href="#HelveticaNeue-30" transform="translate(55.599991 0)"/>
      </g>
     </g>
    </g>
    <g id="xtick_12">
     <g id="line2d_18">
      <g>
       <use xlink:href="#m13802eee39" x="766.87125" y="233.608" style="fill: #666666; stroke: #666666; stroke-width: 0.8"/>
      </g>
     </g>
     <g id="text_20">
      <!-- 100 -->
      <g style="fill: #666666" transform="translate(760.2 246.3205) scale(0.08 -0.08)">
       <use xlink:href="#HelveticaNeue-31"/>
       <use xlink:href="#HelveticaNeue-30" transform="translate(55.599991 0)"/>
       <use xlink:href="#HelveticaNeue-30" transform="translate(111.199982 0)"/>
      </g>
     </g>
    </g>
    <g id="text_21">
     <!-- Mean final score -->
     <g style="fill: #333333" transform="translate(585.134063 259.037375) scale(0.1 -0.1)">
      <use xlink:href="#HelveticaNeue-4d"/>
      <use xlink:href="#HelveticaNeue-65" transform="translate(87.099991 0)"/>
      <use xlink:href="#HelveticaNeue-61" transform="translate(140.799988 0)"/>
      <use xlink:href="#HelveticaNeue-6e" transform="translate(194.499985 0)"/>
      <use xlink:href="#HelveticaNeue-20" transform="translate(250.099976 0)"/>
      <use xlink:href="#HelveticaNeue-66" transform="translate(277.899963 0)"/>
      <use xlink:href="#HelveticaNeue-69" transform="translate(307.499954 0)"/>
      <use xlink:href="#HelveticaNeue-6e" transform="translate(329.699951 0)"/>
      <use xlink:href="#HelveticaNeue-61" transform="translate(385.299942 0)"/>
      <use xlink:href="#HelveticaNeue-6c" transform="translate(438.999939 0)"/>
      <use xlink:href="#HelveticaNeue-20" transform="translate(461.199936 0)"/>
      <use xlink:href="#HelveticaNeue-73" transform="translate(488.999924 0)"/>
      <use xlink:href="#HelveticaNeue-63" transform="translate(538.999908 0)"/>
      <use xlink:href="#HelveticaNeue-6f" transform="translate(592.699905 0)"/>
      <use xlink:href="#HelveticaNeue-72" transform="translate(650.099899 0)"/>
      <use xlink:href="#HelveticaNeue-65" transform="translate(681.649887 0)"/>
     </g>
    </g>
   </g>
   <g id="matplotlib.axis_4">
    <g id="ytick_7">
     <g id="line2d_19">
      <g>
       <use xlink:href="#mb76271a737" x="476.93125" y="212.942608" style="fill: #666666; stroke: #666666; stroke-width: 0.8"/>
      </g>
     </g>
     <g id="text_22">
      <!-- Python Programming -->
      <g style="fill: #666666" transform="translate(394.2 215.798858) scale(0.08 -0.08)">
       <use xlink:href="#HelveticaNeue-50"/>
       <use xlink:href="#HelveticaNeue-79" transform="translate(64.799988 0)"/>
       <use xlink:href="#HelveticaNeue-74" transform="translate(114.799973 0)"/>
       <use xlink:href="#HelveticaNeue-68" transform="translate(146.299957 0)"/>
       <use xlink:href="#HelveticaNeue-6f" transform="translate(201.899948 0)"/>
       <use xlink:href="#HelveticaNeue-6e" transform="translate(259.299942 0)"/>
       <use xlink:href="#HelveticaNeue-20" transform="translate(314.899933 0)"/>
       <use xlink:href="#HelveticaNeue-50" transform="translate(342.699921 0)"/>
       <use xlink:href="#HelveticaNeue-72" transform="translate(407.499908 0)"/>
       <use xlink:href="#HelveticaNeue-6f" transform="translate(439.049896 0)"/>
       <use xlink:href="#HelveticaNeue-67" transform="translate(496.44989 0)"/>
       <use xlink:href="#HelveticaNeue-72" transform="translate(553.849884 0)"/>
       <use xlink:href="#HelveticaNeue-61" transform="translate(587.149872 0)"/>
       <use xlink:href="#HelveticaNeue-6d" transform="translate(640.849869 0)"/>
       <use xlink:href="#HelveticaNeue-6d" transform="translate(726.149857 0)"/>
       <use xlink:href="#HelveticaNeue-69" transform="translate(811.449844 0)"/>
       <use xlink:href="#HelveticaNeue-6e" transform="translate(833.649841 0)"/>
       <use xlink:href="#HelveticaNeue-67" transform="translate(889.249832 0)"/>
      </g>
     </g>
    </g>
    <g id="ytick_8">
     <g id="line2d_20">
      <g>
       <use xlink:href="#mb76271a737" x="476.93125" y="182.992765" style="fill: #666666; stroke: #666666; stroke-width: 0.8"/>
      </g>
     </g>
     <g id="text_23">
      <!-- Databases -->
      <g style="fill: #666666" transform="translate(431.85 185.849015) scale(0.08 -0.08)">
       <use xlink:href="#HelveticaNeue-44"/>
       <use xlink:href="#HelveticaNeue-61" transform="translate(70.399994 0)"/>
       <use xlink:href="#HelveticaNeue-74" transform="translate(124.099991 0)"/>
       <use xlink:href="#HelveticaNeue-61" transform="translate(155.599976 0)"/>
       <use xlink:href="#HelveticaNeue-62" transform="translate(209.299973 0)"/>
       <use xlink:href="#HelveticaNeue-61" transform="translate(268.59996 0)"/>
       <use xlink:href="#HelveticaNeue-73" transform="translate(322.299957 0)"/>
       <use xlink:href="#HelveticaNeue-65" transform="translate(372.299942 0)"/>
       <use xlink:href="#HelveticaNeue-73" transform="translate(425.999939 0)"/>
      </g>
     </g>
    </g>
    <g id="ytick_9">
     <g id="line2d_21">
      <g>
       <use xlink:href="#mb76271a737" x="476.93125" y="153.042922" style="fill: #666666; stroke: #666666; stroke-width: 0.8"/>
      </g>
     </g>
     <g id="text_24">
      <!-- Linear Algebra -->
      <g style="fill: #666666" transform="translate(418.2275 155.899172) scale(0.08 -0.08)">
       <use xlink:href="#HelveticaNeue-4c"/>
       <use xlink:href="#HelveticaNeue-69" transform="translate(55.599991 0)"/>
       <use xlink:href="#HelveticaNeue-6e" transform="translate(77.799988 0)"/>
       <use xlink:href="#HelveticaNeue-65" transform="translate(133.399979 0)"/>
       <use xlink:href="#HelveticaNeue-61" transform="translate(187.099976 0)"/>
       <use xlink:href="#HelveticaNeue-72" transform="translate(240.799973 0)"/>
       <use xlink:href="#HelveticaNeue-20" transform="translate(274.09996 0)"/>
       <use xlink:href="#HelveticaNeue-41" transform="translate(301.899948 0)"/>
       <use xlink:href="#HelveticaNeue-6c" transform="translate(366.699936 0)"/>
       <use xlink:href="#HelveticaNeue-67" transform="translate(388.899933 0)"/>
       <use xlink:href="#HelveticaNeue-65" transform="translate(446.299927 0)"/>
       <use xlink:href="#HelveticaNeue-62" transform="translate(499.999924 0)"/>
       <use xlink:href="#HelveticaNeue-72" transform="translate(559.299911 0)"/>
       <use xlink:href="#HelveticaNeue-61" transform="translate(592.599899 0)"/>
      </g>
     </g>
    </g>
    <g id="ytick_10">
     <g id="line2d_22">
      <g>
       <use xlink:href="#mb76271a737" x="476.93125" y="123.093078" style="fill: #666666; stroke: #666666; stroke-width: 0.8"/>
      </g>
     </g>
     <g id="text_25">
      <!-- Data Structures -->
      <g style="fill: #666666" transform="translate(414.06375 125.949328) scale(0.08 -0.08)">
       <use xlink:href="#HelveticaNeue-44"/>
       <use xlink:href="#HelveticaNeue-61" transform="translate(70.399994 0)"/>
       <use xlink:href="#HelveticaNeue-74" transform="translate(124.099991 0)"/>
       <use xlink:href="#HelveticaNeue-61" transform="translate(155.599976 0)"/>
       <use xlink:href="#HelveticaNeue-20" transform="translate(209.299973 0)"/>
       <use xlink:href="#HelveticaNeue-53" transform="translate(237.09996 0)"/>
       <use xlink:href="#HelveticaNeue-74" transform="translate(301.899948 0)"/>
       <use xlink:href="#HelveticaNeue-72" transform="translate(333.399933 0)"/>
       <use xlink:href="#HelveticaNeue-75" transform="translate(366.699921 0)"/>
       <use xlink:href="#HelveticaNeue-63" transform="translate(422.299911 0)"/>
       <use xlink:href="#HelveticaNeue-74" transform="translate(475.999908 0)"/>
       <use xlink:href="#HelveticaNeue-75" transform="translate(507.499893 0)"/>
       <use xlink:href="#HelveticaNeue-72" transform="translate(563.099884 0)"/>
       <use xlink:href="#HelveticaNeue-65" transform="translate(594.649872 0)"/>
       <use xlink:href="#HelveticaNeue-73" transform="translate(648.349869 0)"/>
      </g>
     </g>
    </g>
    <g id="ytick_11">
     <g id="line2d_23">
      <g>
       <use xlink:href="#mb76271a737" x="476.93125" y="93.143235" style="fill: #666666; stroke: #666666; stroke-width: 0.8"/>
      </g>
     </g>
     <g id="text_26">
      <!-- Statistics -->
      <g style="fill: #666666" transform="translate(437.0425 95.999485) scale(0.08 -0.08)">
       <use xlink:href="#HelveticaNeue-53"/>
       <use xlink:href="#HelveticaNeue-74" transform="translate(64.799988 0)"/>
       <use xlink:href="#HelveticaNeue-61" transform="translate(96.299973 0)"/>
       <use xlink:href="#HelveticaNeue-74" transform="translate(149.999969 0)"/>
       <use xlink:href="#HelveticaNeue-69" transform="translate(181.499954 0)"/>
       <use xlink:href="#HelveticaNeue-73" transform="translate(203.699951 0)"/>
       <use xlink:href="#HelveticaNeue-74" transform="translate(253.699936 0)"/>
       <use xlink:href="#HelveticaNeue-69" transform="translate(285.199921 0)"/>
       <use xlink:href="#HelveticaNeue-63" transform="translate(307.399918 0)"/>
       <use xlink:href="#HelveticaNeue-73" transform="translate(361.099915 0)"/>
      </g>
     </g>
    </g>
    <g id="ytick_12">
     <g id="line2d_24">
      <g>
       <use xlink:href="#mb76271a737" x="476.93125" y="63.193392" style="fill: #666666; stroke: #666666; stroke-width: 0.8"/>
      </g>
     </g>
     <g id="text_27">
      <!-- Machine Learning -->
      <g style="fill: #666666" transform="translate(406.0725 66.049642) scale(0.08 -0.08)">
       <use xlink:href="#HelveticaNeue-4d"/>
       <use xlink:href="#HelveticaNeue-61" transform="translate(87.099991 0)"/>
       <use xlink:href="#HelveticaNeue-63" transform="translate(140.799988 0)"/>
       <use xlink:href="#HelveticaNeue-68" transform="translate(194.499985 0)"/>
       <use xlink:href="#HelveticaNeue-69" transform="translate(250.099976 0)"/>
       <use xlink:href="#HelveticaNeue-6e" transform="translate(272.299973 0)"/>
       <use xlink:href="#HelveticaNeue-65" transform="translate(327.899963 0)"/>
       <use xlink:href="#HelveticaNeue-20" transform="translate(381.59996 0)"/>
       <use xlink:href="#HelveticaNeue-4c" transform="translate(409.399948 0)"/>
       <use xlink:href="#HelveticaNeue-65" transform="translate(464.999939 0)"/>
       <use xlink:href="#HelveticaNeue-61" transform="translate(518.699936 0)"/>
       <use xlink:href="#HelveticaNeue-72" transform="translate(572.399933 0)"/>
       <use xlink:href="#HelveticaNeue-6e" transform="translate(607.449921 0)"/>
       <use xlink:href="#HelveticaNeue-69" transform="translate(663.049911 0)"/>
       <use xlink:href="#HelveticaNeue-6e" transform="translate(685.249908 0)"/>
       <use xlink:href="#HelveticaNeue-67" transform="translate(740.849899 0)"/>
      </g>
     </g>
    </g>
   </g>
   <g id="patch_18">
    <path d="M 476.93125 233.608 
L 476.93125 42.528 
" style="fill: none; stroke: #bbbbbb; stroke-width: 0.8; stroke-linejoin: miter; stroke-linecap: square"/>
   </g>
   <g id="patch_19">
    <path d="M 476.93125 233.608 
L 766.87125 233.608 
" style="fill: none; stroke: #bbbbbb; stroke-width: 0.8; stroke-linejoin: miter; stroke-linecap: square"/>
   </g>
   <g id="text_28">
    <!-- Colour highlights 'Machine Learning' -->
    <g style="fill: #1e293b" transform="translate(531.853359 36.528) scale(0.11 -0.11)">
     <defs>
      <path id="HelveticaNeue-43" d="M 3712 3194 
L 4320 3194 
Q 4269 3558 4102 3836 
Q 3936 4115 3686 4300 
Q 3437 4486 3117 4582 
Q 2797 4678 2438 4678 
Q 1914 4678 1507 4489 
Q 1101 4301 829 3974 
Q 557 3648 416 3209 
Q 275 2771 275 2272 
Q 275 1773 406 1337 
Q 538 902 800 582 
Q 1062 262 1459 80 
Q 1856 -102 2387 -102 
Q 3264 -102 3769 378 
Q 4275 858 4365 1722 
L 3757 1722 
Q 3738 1440 3642 1197 
Q 3546 954 3376 778 
Q 3206 602 2972 502 
Q 2739 403 2438 403 
Q 2029 403 1734 556 
Q 1440 710 1251 969 
Q 1062 1229 972 1577 
Q 883 1926 883 2317 
Q 883 2675 972 3008 
Q 1062 3341 1251 3600 
Q 1440 3859 1731 4012 
Q 2022 4166 2432 4166 
Q 2912 4166 3261 3923 
Q 3610 3680 3712 3194 
z
" transform="scale(0.015625)"/>
      <path id="HelveticaNeue-27" d="M 672 4570 
L 672 2918 
L 1107 2918 
L 1107 4570 
L 672 4570 
z
" transform="scale(0.015625)"/>
     </defs>
     <use xlink:href="#HelveticaNeue-43"/>
     <use xlink:href="#HelveticaNeue-6f" transform="translate(72.199982 0)"/>
     <use xlink:href="#HelveticaNeue-6c" transform="translate(129.599976 0)"/>
     <use xlink:href="#HelveticaNeue-6f" transform="translate(151.799973 0)"/>
     <use xlink:href="#HelveticaNeue-75" transform="translate(209.199966 0)"/>
     <use xlink:href="#HelveticaNeue-72" transform="translate(264.799957 0)"/>
     <use xlink:href="#HelveticaNeue-20" transform="translate(298.099945 0)"/>
     <use xlink:href="#HelveticaNeue-68" transform="translate(325.899933 0)"/>
     <use xlink:href="#HelveticaNeue-69" transform="translate(381.499924 0)"/>
     <use xlink:href="#HelveticaNeue-67" transform="translate(403.699921 0)"/>
     <use xlink:href="#HelveticaNeue-68" transform="translate(461.099915 0)"/>
     <use xlink:href="#HelveticaNeue-6c" transform="translate(516.699905 0)"/>
     <use xlink:href="#HelveticaNeue-69" transform="translate(538.899902 0)"/>
     <use xlink:href="#HelveticaNeue-67" transform="translate(561.099899 0)"/>
     <use xlink:href="#HelveticaNeue-68" transform="translate(618.499893 0)"/>
     <use xlink:href="#HelveticaNeue-74" transform="translate(674.099884 0)"/>
     <use xlink:href="#HelveticaNeue-73" transform="translate(705.599869 0)"/>
     <use xlink:href="#HelveticaNeue-20" transform="translate(755.599854 0)"/>
     <use xlink:href="#HelveticaNeue-27" transform="translate(783.399841 0)"/>
     <use xlink:href="#HelveticaNeue-4d" transform="translate(811.199829 0)"/>
     <use xlink:href="#HelveticaNeue-61" transform="translate(898.29982 0)"/>
     <use xlink:href="#HelveticaNeue-63" transform="translate(951.999817 0)"/>
     <use xlink:href="#HelveticaNeue-68" transform="translate(1005.699814 0)"/>
     <use xlink:href="#HelveticaNeue-69" transform="translate(1061.299805 0)"/>
     <use xlink:href="#HelveticaNeue-6e" transform="translate(1083.499802 0)"/>
     <use xlink:href="#HelveticaNeue-65" transform="translate(1139.099792 0)"/>
     <use xlink:href="#HelveticaNeue-20" transform="translate(1192.799789 0)"/>
     <use xlink:href="#HelveticaNeue-4c" transform="translate(1220.599777 0)"/>
     <use xlink:href="#HelveticaNeue-65" transform="translate(1276.199768 0)"/>
     <use xlink:href="#HelveticaNeue-61" transform="translate(1329.899765 0)"/>
     <use xlink:href="#HelveticaNeue-72" transform="translate(1383.599762 0)"/>
     <use xlink:href="#HelveticaNeue-6e" transform="translate(1418.64975 0)"/>
     <use xlink:href="#HelveticaNeue-69" transform="translate(1474.249741 0)"/>
     <use xlink:href="#HelveticaNeue-6e" transform="translate(1496.449738 0)"/>
     <use xlink:href="#HelveticaNeue-67" transform="translate(1552.049728 0)"/>
     <use xlink:href="#HelveticaNeue-27" transform="translate(1609.449722 0)"/>
    </g>
   </g>
  </g>
  <g id="text_29">
   <!-- Same data — preattentive colour changes where the eye goes first -->
   <g style="fill: #6b7280" transform="translate(239.601562 10.909375) scale(0.1 -0.1)">
    <defs>
     <path id="HelveticaNeue-64" d="M 806 1626 
Q 806 1869 857 2099 
Q 909 2330 1024 2509 
Q 1139 2688 1331 2797 
Q 1523 2906 1798 2906 
Q 2080 2906 2278 2800 
Q 2477 2694 2601 2521 
Q 2726 2349 2784 2121 
Q 2842 1894 2842 1651 
Q 2842 1421 2787 1197 
Q 2733 973 2611 797 
Q 2490 621 2298 512 
Q 2106 403 1830 403 
Q 1568 403 1373 505 
Q 1178 608 1053 781 
Q 928 954 867 1174 
Q 806 1395 806 1626 
z
M 3366 0 
L 3366 4570 
L 2822 4570 
L 2822 2867 
L 2810 2867 
Q 2720 3014 2589 3113 
Q 2458 3213 2310 3273 
Q 2163 3334 2016 3360 
Q 1869 3386 1741 3386 
Q 1363 3386 1078 3248 
Q 794 3110 605 2876 
Q 416 2643 323 2329 
Q 230 2016 230 1664 
Q 230 1312 326 998 
Q 422 685 611 448 
Q 800 211 1085 70 
Q 1370 -70 1754 -70 
Q 2099 -70 2387 51 
Q 2675 173 2810 448 
L 2822 448 
L 2822 0 
L 3366 0 
z
" transform="scale(0.015625)"/>
     <path id="HelveticaNeue-2014" d="M 832 2035 
L 832 1523 
L 5568 1523 
L 5568 2035 
L 832 2035 
z
" transform="scale(0.015625)"/>
     <path id="HelveticaNeue-77" d="M 3686 0 
L 4742 3309 
L 4179 3309 
L 3437 602 
L 3424 602 
L 2733 3309 
L 2138 3309 
L 1472 602 
L 1459 602 
L 710 3309 
L 109 3309 
L 1171 0 
L 1760 0 
L 2426 2630 
L 2438 2630 
L 3110 0 
L 3686 0 
z
" transform="scale(0.015625)"/>
    </defs>
    <use xlink:href="#HelveticaNeue-53"/>
    <use xlink:href="#HelveticaNeue-61" transform="translate(64.799988 0)"/>
    <use xlink:href="#HelveticaNeue-6d" transform="translate(118.499985 0)"/>
    <use xlink:href="#HelveticaNeue-65" transform="translate(203.799973 0)"/>
    <use xlink:href="#HelveticaNeue-20" transform="translate(257.499969 0)"/>
    <use xlink:href="#HelveticaNeue-64" transform="translate(285.299957 0)"/>
    <use xlink:href="#HelveticaNeue-61" transform="translate(344.599945 0)"/>
    <use xlink:href="#HelveticaNeue-74" transform="translate(398.299942 0)"/>
    <use xlink:href="#HelveticaNeue-61" transform="translate(429.799927 0)"/>
    <use xlink:href="#HelveticaNeue-20" transform="translate(483.499924 0)"/>
    <use xlink:href="#HelveticaNeue-2014" transform="translate(511.299911 0)"/>
    <use xlink:href="#HelveticaNeue-20" transform="translate(611.299896 0)"/>
    <use xlink:href="#HelveticaNeue-70" transform="translate(639.099884 0)"/>
    <use xlink:href="#HelveticaNeue-72" transform="translate(698.399872 0)"/>
    <use xlink:href="#HelveticaNeue-65" transform="translate(729.94986 0)"/>
    <use xlink:href="#HelveticaNeue-61" transform="translate(783.649857 0)"/>
    <use xlink:href="#HelveticaNeue-74" transform="translate(837.349854 0)"/>
    <use xlink:href="#HelveticaNeue-74" transform="translate(868.849838 0)"/>
    <use xlink:href="#HelveticaNeue-65" transform="translate(900.349823 0)"/>
    <use xlink:href="#HelveticaNeue-6e" transform="translate(954.04982 0)"/>
    <use xlink:href="#HelveticaNeue-74" transform="translate(1009.649811 0)"/>
    <use xlink:href="#HelveticaNeue-69" transform="translate(1041.149796 0)"/>
    <use xlink:href="#HelveticaNeue-76" transform="translate(1063.349792 0)"/>
    <use xlink:href="#HelveticaNeue-65" transform="translate(1113.349777 0)"/>
    <use xlink:href="#HelveticaNeue-20" transform="translate(1167.049774 0)"/>
    <use xlink:href="#HelveticaNeue-63" transform="translate(1194.849762 0)"/>
    <use xlink:href="#HelveticaNeue-6f" transform="translate(1248.549759 0)"/>
    <use xlink:href="#HelveticaNeue-6c" transform="translate(1305.949753 0)"/>
    <use xlink:href="#HelveticaNeue-6f" transform="translate(1328.14975 0)"/>
    <use xlink:href="#HelveticaNeue-75" transform="translate(1385.549744 0)"/>
    <use xlink:href="#HelveticaNeue-72" transform="translate(1441.149734 0)"/>
    <use xlink:href="#HelveticaNeue-20" transform="translate(1474.449722 0)"/>
    <use xlink:href="#HelveticaNeue-63" transform="translate(1502.24971 0)"/>
    <use xlink:href="#HelveticaNeue-68" transform="translate(1555.949707 0)"/>
    <use xlink:href="#HelveticaNeue-61" transform="translate(1611.549698 0)"/>
    <use xlink:href="#HelveticaNeue-6e" transform="translate(1665.249695 0)"/>
    <use xlink:href="#HelveticaNeue-67" transform="translate(1720.849686 0)"/>
    <use xlink:href="#HelveticaNeue-65" transform="translate(1778.24968 0)"/>
    <use xlink:href="#HelveticaNeue-73" transform="translate(1831.949677 0)"/>
    <use xlink:href="#HelveticaNeue-20" transform="translate(1881.949661 0)"/>
    <use xlink:href="#HelveticaNeue-77" transform="translate(1909.749649 0)"/>
    <use xlink:href="#HelveticaNeue-68" transform="translate(1985.549637 0)"/>
    <use xlink:href="#HelveticaNeue-65" transform="translate(2041.149628 0)"/>
    <use xlink:href="#HelveticaNeue-72" transform="translate(2094.849625 0)"/>
    <use xlink:href="#HelveticaNeue-65" transform="translate(2126.399612 0)"/>
    <use xlink:href="#HelveticaNeue-20" transform="translate(2180.099609 0)"/>
    <use xlink:href="#HelveticaNeue-74" transform="translate(2207.899597 0)"/>
    <use xlink:href="#HelveticaNeue-68" transform="translate(2239.399582 0)"/>
    <use xlink:href="#HelveticaNeue-65" transform="translate(2294.999573 0)"/>
    <use xlink:href="#HelveticaNeue-20" transform="translate(2348.69957 0)"/>
    <use xlink:href="#HelveticaNeue-65" transform="translate(2376.499557 0)"/>
    <use xlink:href="#HelveticaNeue-79" transform="translate(2430.199554 0)"/>
    <use xlink:href="#HelveticaNeue-65" transform="translate(2480.199539 0)"/>
    <use xlink:href="#HelveticaNeue-20" transform="translate(2533.899536 0)"/>
    <use xlink:href="#HelveticaNeue-67" transform="translate(2561.699524 0)"/>
    <use xlink:href="#HelveticaNeue-6f" transform="translate(2619.099518 0)"/>
    <use xlink:href="#HelveticaNeue-65" transform="translate(2676.499512 0)"/>
    <use xlink:href="#HelveticaNeue-73" transform="translate(2730.199509 0)"/>
    <use xlink:href="#HelveticaNeue-20" transform="translate(2780.199493 0)"/>
    <use xlink:href="#HelveticaNeue-66" transform="translate(2807.999481 0)"/>
    <use xlink:href="#HelveticaNeue-69" transform="translate(2837.599472 0)"/>
    <use xlink:href="#HelveticaNeue-72" transform="translate(2859.799469 0)"/>
    <use xlink:href="#HelveticaNeue-73" transform="translate(2893.099457 0)"/>
    <use xlink:href="#HelveticaNeue-74" transform="translate(2943.099442 0)"/>
   </g>
  </g>
 </g>
 <defs>
  <clipPath id="p85636bcc35">
   <rect x="86.33125" y="42.528" width="289.94" height="191.08"/>
  </clipPath>
  <clipPath id="p8edd9b6004">
   <rect x="476.93125" y="42.528" width="289.94" height="191.08"/>
  </clipPath>
 </defs>
</svg>
