<svg viewBox="0 0 400 260" fill="none" xmlns="http://www.w3.org/2000/svg">
  <defs>
    <marker id="cv-arrow" markerWidth="7" markerHeight="7" refX="3.5" refY="3.5" orient="auto">
      <polygon points="0 0, 7 3.5, 0 7" fill="#38BDF8" opacity="0.65"/>
    </marker>
  </defs>

  <!-- Left: scattered input data points -->
  <circle cx="22" cy="38"  r="3.5" fill="#38BDF8" opacity="0.55"/>
  <circle cx="48" cy="22"  r="2.5" fill="#7C3AED" opacity="0.45"/>
  <circle cx="68" cy="50"  r="4"   fill="#38BDF8" opacity="0.35"/>
  <circle cx="15" cy="75"  r="2.5" fill="#38BDF8" opacity="0.6"/>
  <circle cx="55" cy="85"  r="3"   fill="#7C3AED" opacity="0.4"/>
  <circle cx="30" cy="112" r="4"   fill="#38BDF8" opacity="0.5"/>
  <circle cx="75" cy="105" r="2"   fill="#38BDF8" opacity="0.7"/>
  <circle cx="10" cy="142" r="3"   fill="#7C3AED" opacity="0.4"/>
  <circle cx="60" cy="140" r="3.5" fill="#38BDF8" opacity="0.45"/>
  <circle cx="35" cy="172" r="2.5" fill="#38BDF8" opacity="0.55"/>
  <circle cx="72" cy="168" r="3"   fill="#7C3AED" opacity="0.35"/>
  <circle cx="20" cy="200" r="4"   fill="#38BDF8" opacity="0.4"/>
  <circle cx="55" cy="210" r="2.5" fill="#38BDF8" opacity="0.5"/>
  <circle cx="78" cy="230" r="3"   fill="#7C3AED" opacity="0.35"/>

  <!-- Faint edges between nearby dots -->
  <line x1="22" y1="38"  x2="48" y2="22"   stroke="#38BDF8" stroke-width="0.5" opacity="0.18"/>
  <line x1="22" y1="38"  x2="15" y2="75"   stroke="#38BDF8" stroke-width="0.5" opacity="0.15"/>
  <line x1="48" y1="22"  x2="68" y2="50"   stroke="#7C3AED" stroke-width="0.5" opacity="0.15"/>
  <line x1="55" y1="85"  x2="30" y2="112"  stroke="#38BDF8" stroke-width="0.5" opacity="0.18"/>
  <line x1="30" y1="112" x2="75" y2="105"  stroke="#38BDF8" stroke-width="0.5" opacity="0.14"/>
  <line x1="10" y1="142" x2="60" y2="140"  stroke="#7C3AED" stroke-width="0.5" opacity="0.14"/>
  <line x1="35" y1="172" x2="72" y2="168"  stroke="#38BDF8" stroke-width="0.5" opacity="0.14"/>
  <line x1="20" y1="200" x2="55" y2="210"  stroke="#38BDF8" stroke-width="0.5" opacity="0.18"/>

  <!-- Convergence: left cluster flows into neural net input layer -->
  <path d="M 80 38  C 108 38  112 55  130 55"  stroke="#38BDF8" stroke-width="1"   opacity="0.28" fill="none"/>
  <path d="M 80 105 C 105 105 112 100 130 100" stroke="#38BDF8" stroke-width="1.5" opacity="0.38" fill="none"/>
  <path d="M 80 155 C 105 155 112 155 130 155" stroke="#7C3AED" stroke-width="1"   opacity="0.28" fill="none"/>
  <path d="M 80 210 C 108 210 112 205 130 205" stroke="#38BDF8" stroke-width="1"   opacity="0.22" fill="none"/>

  <!-- Neural network: layer 1 (input, 4 nodes) -->
  <circle cx="148" cy="55"  r="7" stroke="#38BDF8" stroke-width="1.5" fill="#38BDF8" fill-opacity="0.1" opacity="0.8"/>
  <circle cx="148" cy="100" r="7" stroke="#38BDF8" stroke-width="1.5" fill="#38BDF8" fill-opacity="0.1" opacity="0.8"/>
  <circle cx="148" cy="155" r="7" stroke="#7C3AED" stroke-width="1.5" fill="#7C3AED" fill-opacity="0.1" opacity="0.7"/>
  <circle cx="148" cy="205" r="7" stroke="#38BDF8" stroke-width="1.5" fill="#38BDF8" fill-opacity="0.1" opacity="0.7"/>

  <!-- L1 to L2 connections -->
  <line x1="155" y1="55"  x2="205" y2="80"  stroke="#38BDF8" stroke-width="0.6" opacity="0.18"/>
  <line x1="155" y1="55"  x2="205" y2="130" stroke="#38BDF8" stroke-width="0.6" opacity="0.12"/>
  <line x1="155" y1="55"  x2="205" y2="178" stroke="#38BDF8" stroke-width="0.6" opacity="0.08"/>
  <line x1="155" y1="100" x2="205" y2="80"  stroke="#38BDF8" stroke-width="0.6" opacity="0.2"/>
  <line x1="155" y1="100" x2="205" y2="130" stroke="#38BDF8" stroke-width="0.6" opacity="0.24"/>
  <line x1="155" y1="100" x2="205" y2="178" stroke="#38BDF8" stroke-width="0.6" opacity="0.12"/>
  <line x1="155" y1="155" x2="205" y2="80"  stroke="#7C3AED" stroke-width="0.6" opacity="0.12"/>
  <line x1="155" y1="155" x2="205" y2="130" stroke="#7C3AED" stroke-width="0.6" opacity="0.18"/>
  <line x1="155" y1="155" x2="205" y2="178" stroke="#7C3AED" stroke-width="0.6" opacity="0.2"/>
  <line x1="155" y1="205" x2="205" y2="80"  stroke="#38BDF8" stroke-width="0.6" opacity="0.08"/>
  <line x1="155" y1="205" x2="205" y2="130" stroke="#38BDF8" stroke-width="0.6" opacity="0.12"/>
  <line x1="155" y1="205" x2="205" y2="178" stroke="#38BDF8" stroke-width="0.6" opacity="0.18"/>

  <!-- Neural network: layer 2 (hidden, 3 nodes) -->
  <circle cx="212" cy="80"  r="8" stroke="#38BDF8" stroke-width="2"   fill="#38BDF8" fill-opacity="0.16" opacity="0.9"/>
  <circle cx="212" cy="130" r="9" stroke="#38BDF8" stroke-width="2.5" fill="#38BDF8" fill-opacity="0.22" opacity="1.0"/>
  <circle cx="212" cy="178" r="8" stroke="#7C3AED" stroke-width="2"   fill="#7C3AED" fill-opacity="0.14" opacity="0.85"/>

  <!-- L2 to L3 connections -->
  <line x1="220" y1="80"  x2="263" y2="108" stroke="#38BDF8" stroke-width="0.8" opacity="0.24"/>
  <line x1="220" y1="80"  x2="263" y2="158" stroke="#38BDF8" stroke-width="0.8" opacity="0.12"/>
  <line x1="220" y1="130" x2="263" y2="108" stroke="#38BDF8" stroke-width="0.8" opacity="0.3"/>
  <line x1="220" y1="130" x2="263" y2="158" stroke="#38BDF8" stroke-width="0.8" opacity="0.24"/>
  <line x1="220" y1="178" x2="263" y2="108" stroke="#7C3AED" stroke-width="0.8" opacity="0.14"/>
  <line x1="220" y1="178" x2="263" y2="158" stroke="#7C3AED" stroke-width="0.8" opacity="0.2"/>

  <!-- Neural network: layer 3 (output, 2 nodes) -->
  <circle cx="270" cy="108" r="9.5" stroke="#38BDF8" stroke-width="2.5" fill="#38BDF8" fill-opacity="0.28" opacity="1.0"/>
  <circle cx="270" cy="158" r="8"   stroke="#7C3AED" stroke-width="2"   fill="#7C3AED" fill-opacity="0.2"  opacity="0.9"/>

  <!-- Output arrow to chart -->
  <path d="M 280 133 L 306 133" stroke="#38BDF8" stroke-width="2" opacity="0.45" fill="none" marker-end="url(#cv-arrow)"/>

  <!-- Right: rising impact chart — axes -->
  <line x1="316" y1="228" x2="316" y2="44" stroke="#38BDF8" stroke-width="0.75" opacity="0.22"/>
  <line x1="316" y1="228" x2="396" y2="228" stroke="#38BDF8" stroke-width="0.75" opacity="0.22"/>

  <!-- Horizontal grid lines -->
  <line x1="316" y1="192" x2="396" y2="192" stroke="#38BDF8" stroke-width="0.4" opacity="0.09"/>
  <line x1="316" y1="155" x2="396" y2="155" stroke="#38BDF8" stroke-width="0.4" opacity="0.09"/>
  <line x1="316" y1="118" x2="396" y2="118" stroke="#38BDF8" stroke-width="0.4" opacity="0.09"/>
  <line x1="316" y1="80"  x2="396" y2="80"  stroke="#38BDF8" stroke-width="0.4" opacity="0.09"/>

  <!-- Area under rising trend -->
  <path d="M 323 218 L 337 198 L 350 182 L 362 158 L 373 124 L 383 90 L 391 62 L 391 228 L 323 228 Z"
        fill="#38BDF8" fill-opacity="0.07"/>

  <!-- Rising trend line -->
  <path d="M 323 218 L 337 198 L 350 182 L 362 158 L 373 124 L 383 90 L 391 62"
        stroke="#38BDF8" stroke-width="2.5" opacity="0.88" fill="none"
        stroke-linecap="round" stroke-linejoin="round"/>

  <!-- Data point dots on trend -->
  <circle cx="323" cy="218" r="2.5" fill="#38BDF8" opacity="0.48"/>
  <circle cx="337" cy="198" r="2.5" fill="#38BDF8" opacity="0.58"/>
  <circle cx="350" cy="182" r="2.5" fill="#38BDF8" opacity="0.65"/>
  <circle cx="362" cy="158" r="3"   fill="#38BDF8" opacity="0.75"/>
  <circle cx="373" cy="124" r="3"   fill="#38BDF8" opacity="0.84"/>
  <circle cx="383" cy="90"  r="3.5" fill="#38BDF8" opacity="0.9"/>

  <!-- Peak impact dot with halo -->
  <circle cx="391" cy="62" r="11" fill="#38BDF8" fill-opacity="0.08"/>
  <circle cx="391" cy="62" r="7"  fill="#38BDF8" fill-opacity="0.18"/>
  <circle cx="391" cy="62" r="4"  fill="#38BDF8" opacity="0.95"/>

  <!-- IMPACT label -->
  <text x="391" y="50" text-anchor="middle"
        font-family="'Jost', system-ui, sans-serif"
        font-size="7.5" font-weight="700" letter-spacing="0.07em"
        fill="#38BDF8" opacity="0.78">IMPACT</text>

  <!-- Section labels -->
  <text x="45"  y="252" text-anchor="middle"
        font-family="'Jost', system-ui, sans-serif"
        font-size="7" font-weight="600" letter-spacing="0.06em"
        fill="#94A3B8" opacity="0.55">DATA</text>
  <text x="210" y="252" text-anchor="middle"
        font-family="'Jost', system-ui, sans-serif"
        font-size="7" font-weight="600" letter-spacing="0.06em"
        fill="#94A3B8" opacity="0.55">MODEL</text>
  <text x="356" y="252" text-anchor="middle"
        font-family="'Jost', system-ui, sans-serif"
        font-size="7" font-weight="600" letter-spacing="0.06em"
        fill="#94A3B8" opacity="0.55">OUTPUT</text>
</svg>
