<?xml version="1.0" encoding="utf-8" standalone="no"?>
<!DOCTYPE svg PUBLIC "-//W3C//DTD SVG 1.1//EN"
  "http://www.w3.org/Graphics/SVG/1.1/DTD/svg11.dtd">
<svg xmlns:xlink="http://www.w3.org/1999/xlink" width="777.83125pt" height="263.708625pt" viewBox="0 0 777.83125 263.708625" xmlns="http://www.w3.org/2000/svg" version="1.1">
 <metadata>
  <rdf:RDF xmlns:dc="http://purl.org/dc/elements/1.1/" xmlns:cc="http://creativecommons.org/ns#" xmlns:rdf="http://www.w3.org/1999/02/22-rdf-syntax-ns#">
   <cc:Work>
    <dc:type rdf:resource="http://purl.org/dc/dcmitype/StillImage"/>
    <dc:date>2026-06-29T09:55:24.160674</dc:date>
    <dc:format>image/svg+xml</dc:format>
    <dc:creator>
     <cc:Agent>
      <dc:title>Matplotlib v3.10.7, https://matplotlib.org/</dc:title>
     </cc:Agent>
    </dc:creator>
   </cc:Work>
  </rdf:RDF>
 </metadata>
 <defs>
  <style type="text/css">*{stroke-linejoin: round; stroke-linecap: butt}</style>
 </defs>
 <g id="figure_1">
  <g id="patch_1">
   <path d="M 0 263.708625 
L 777.83125 263.708625 
L 777.83125 0 
L 0 0 
z
" style="fill: #ffffff"/>
  </g>
  <g id="axes_1">
   <g id="patch_2">
    <path d="M 94.78625 231.688 
L 375.99625 231.688 
L 375.99625 43.968 
L 94.78625 43.968 
z
" style="fill: #ffffff"/>
   </g>
   <g id="patch_3">
    <path d="M 94.78625 223.155273 
L 261.685791 223.155273 
L 261.685791 199.616715 
L 94.78625 199.616715 
z
" clip-path="url(#pe47d2c15bc)" style="fill: #adb5bd"/>
   </g>
   <g id="patch_4">
    <path d="M 94.78625 193.732075 
L 262.5245 193.732075 
L 262.5245 170.193517 
L 94.78625 170.193517 
z
" clip-path="url(#pe47d2c15bc)" style="fill: #adb5bd"/>
   </g>
   <g id="patch_5">
    <path d="M 94.78625 164.308878 
L 262.573009 164.308878 
L 262.573009 140.77032 
L 94.78625 140.77032 
z
" clip-path="url(#pe47d2c15bc)" style="fill: #adb5bd"/>
   </g>
   <g id="patch_6">
    <path d="M 94.78625 134.88568 
L 262.580742 134.88568 
L 262.580742 111.347122 
L 94.78625 111.347122 
z
" clip-path="url(#pe47d2c15bc)" style="fill: #adb5bd"/>
   </g>
   <g id="patch_7">
    <path d="M 94.78625 105.462483 
L 262.944909 105.462483 
L 262.944909 81.923925 
L 94.78625 81.923925 
z
" clip-path="url(#pe47d2c15bc)" style="fill: #adb5bd"/>
   </g>
   <g id="patch_8">
    <path d="M 94.78625 76.039285 
L 265.719045 76.039285 
L 265.719045 52.500727 
L 94.78625 52.500727 
z
" clip-path="url(#pe47d2c15bc)" style="fill: #adb5bd"/>
   </g>
   <g id="matplotlib.axis_1">
    <g id="xtick_1">
     <g id="line2d_1">
      <defs>
       <path id="m335a836629" d="M 0 0 
L 0 3.5 
" style="stroke: #666666; stroke-width: 0.8"/>
      </defs>
      <g>
       <use xlink:href="#m335a836629" x="94.78625" y="231.688" style="fill: #666666; stroke: #666666; stroke-width: 0.8"/>
      </g>
     </g>
     <g id="text_1">
      <!-- 0 -->
      <g style="fill: #666666" transform="translate(92.24125 244.76675) scale(0.08 -0.08)">
       <defs>
        <path id="DejaVuSans-30" d="M 2034 4250 
Q 1547 4250 1301 3770 
Q 1056 3291 1056 2328 
Q 1056 1369 1301 889 
Q 1547 409 2034 409 
Q 2525 409 2770 889 
Q 3016 1369 3016 2328 
Q 3016 3291 2770 3770 
Q 2525 4250 2034 4250 
z
M 2034 4750 
Q 2819 4750 3233 4129 
Q 3647 3509 3647 2328 
Q 3647 1150 3233 529 
Q 2819 -91 2034 -91 
Q 1250 -91 836 529 
Q 422 1150 422 2328 
Q 422 3509 836 4129 
Q 1250 4750 2034 4750 
z
" transform="scale(0.015625)"/>
       </defs>
       <use xlink:href="#DejaVuSans-30"/>
      </g>
     </g>
    </g>
    <g id="xtick_2">
     <g id="line2d_2">
      <g>
       <use xlink:href="#m335a836629" x="151.02825" y="231.688" style="fill: #666666; stroke: #666666; stroke-width: 0.8"/>
      </g>
     </g>
     <g id="text_2">
      <!-- 20 -->
      <g style="fill: #666666" transform="translate(145.93825 244.76675) scale(0.08 -0.08)">
       <defs>
        <path id="DejaVuSans-32" d="M 1228 531 
L 3431 531 
L 3431 0 
L 469 0 
L 469 531 
Q 828 903 1448 1529 
Q 2069 2156 2228 2338 
Q 2531 2678 2651 2914 
Q 2772 3150 2772 3378 
Q 2772 3750 2511 3984 
Q 2250 4219 1831 4219 
Q 1534 4219 1204 4116 
Q 875 4013 500 3803 
L 500 4441 
Q 881 4594 1212 4672 
Q 1544 4750 1819 4750 
Q 2544 4750 2975 4387 
Q 3406 4025 3406 3419 
Q 3406 3131 3298 2873 
Q 3191 2616 2906 2266 
Q 2828 2175 2409 1742 
Q 1991 1309 1228 531 
z
" transform="scale(0.015625)"/>
       </defs>
       <use xlink:href="#DejaVuSans-32"/>
       <use xlink:href="#DejaVuSans-30" transform="translate(63.623047 0)"/>
      </g>
     </g>
    </g>
    <g id="xtick_3">
     <g id="line2d_3">
      <g>
       <use xlink:href="#m335a836629" x="207.27025" y="231.688" style="fill: #666666; stroke: #666666; stroke-width: 0.8"/>
      </g>
     </g>
     <g id="text_3">
      <!-- 40 -->
      <g style="fill: #666666" transform="translate(202.18025 244.76675) scale(0.08 -0.08)">
       <defs>
        <path id="DejaVuSans-34" d="M 2419 4116 
L 825 1625 
L 2419 1625 
L 2419 4116 
z
M 2253 4666 
L 3047 4666 
L 3047 1625 
L 3713 1625 
L 3713 1100 
L 3047 1100 
L 3047 0 
L 2419 0 
L 2419 1100 
L 313 1100 
L 313 1709 
L 2253 4666 
z
" transform="scale(0.015625)"/>
       </defs>
       <use xlink:href="#DejaVuSans-34"/>
       <use xlink:href="#DejaVuSans-30" transform="translate(63.623047 0)"/>
      </g>
     </g>
    </g>
    <g id="xtick_4">
     <g id="line2d_4">
      <g>
       <use xlink:href="#m335a836629" x="263.51225" y="231.688" style="fill: #666666; stroke: #666666; stroke-width: 0.8"/>
      </g>
     </g>
     <g id="text_4">
      <!-- 60 -->
      <g style="fill: #666666" transform="translate(258.42225 244.76675) scale(0.08 -0.08)">
       <defs>
        <path id="DejaVuSans-36" d="M 2113 2584 
Q 1688 2584 1439 2293 
Q 1191 2003 1191 1497 
Q 1191 994 1439 701 
Q 1688 409 2113 409 
Q 2538 409 2786 701 
Q 3034 994 3034 1497 
Q 3034 2003 2786 2293 
Q 2538 2584 2113 2584 
z
M 3366 4563 
L 3366 3988 
Q 3128 4100 2886 4159 
Q 2644 4219 2406 4219 
Q 1781 4219 1451 3797 
Q 1122 3375 1075 2522 
Q 1259 2794 1537 2939 
Q 1816 3084 2150 3084 
Q 2853 3084 3261 2657 
Q 3669 2231 3669 1497 
Q 3669 778 3244 343 
Q 2819 -91 2113 -91 
Q 1303 -91 875 529 
Q 447 1150 447 2328 
Q 447 3434 972 4092 
Q 1497 4750 2381 4750 
Q 2619 4750 2861 4703 
Q 3103 4656 3366 4563 
z
" transform="scale(0.015625)"/>
       </defs>
       <use xlink:href="#DejaVuSans-36"/>
       <use xlink:href="#DejaVuSans-30" transform="translate(63.623047 0)"/>
      </g>
     </g>
    </g>
    <g id="xtick_5">
     <g id="line2d_5">
      <g>
       <use xlink:href="#m335a836629" x="319.75425" y="231.688" style="fill: #666666; stroke: #666666; stroke-width: 0.8"/>
      </g>
     </g>
     <g id="text_5">
      <!-- 80 -->
      <g style="fill: #666666" transform="translate(314.66425 244.76675) scale(0.08 -0.08)">
       <defs>
        <path id="DejaVuSans-38" d="M 2034 2216 
Q 1584 2216 1326 1975 
Q 1069 1734 1069 1313 
Q 1069 891 1326 650 
Q 1584 409 2034 409 
Q 2484 409 2743 651 
Q 3003 894 3003 1313 
Q 3003 1734 2745 1975 
Q 2488 2216 2034 2216 
z
M 1403 2484 
Q 997 2584 770 2862 
Q 544 3141 544 3541 
Q 544 4100 942 4425 
Q 1341 4750 2034 4750 
Q 2731 4750 3128 4425 
Q 3525 4100 3525 3541 
Q 3525 3141 3298 2862 
Q 3072 2584 2669 2484 
Q 3125 2378 3379 2068 
Q 3634 1759 3634 1313 
Q 3634 634 3220 271 
Q 2806 -91 2034 -91 
Q 1263 -91 848 271 
Q 434 634 434 1313 
Q 434 1759 690 2068 
Q 947 2378 1403 2484 
z
M 1172 3481 
Q 1172 3119 1398 2916 
Q 1625 2713 2034 2713 
Q 2441 2713 2670 2916 
Q 2900 3119 2900 3481 
Q 2900 3844 2670 4047 
Q 2441 4250 2034 4250 
Q 1625 4250 1398 4047 
Q 1172 3844 1172 3481 
z
" transform="scale(0.015625)"/>
       </defs>
       <use xlink:href="#DejaVuSans-38"/>
       <use xlink:href="#DejaVuSans-30" transform="translate(63.623047 0)"/>
      </g>
     </g>
    </g>
    <g id="xtick_6">
     <g id="line2d_6">
      <g>
       <use xlink:href="#m335a836629" x="375.99625" y="231.688" style="fill: #666666; stroke: #666666; stroke-width: 0.8"/>
      </g>
     </g>
     <g id="text_6">
      <!-- 100 -->
      <g style="fill: #666666" transform="translate(368.36125 244.76675) scale(0.08 -0.08)">
       <defs>
        <path id="DejaVuSans-31" d="M 794 531 
L 1825 531 
L 1825 4091 
L 703 3866 
L 703 4441 
L 1819 4666 
L 2450 4666 
L 2450 531 
L 3481 531 
L 3481 0 
L 794 0 
L 794 531 
z
" transform="scale(0.015625)"/>
       </defs>
       <use xlink:href="#DejaVuSans-31"/>
       <use xlink:href="#DejaVuSans-30" transform="translate(63.623047 0)"/>
       <use xlink:href="#DejaVuSans-30" transform="translate(127.246094 0)"/>
      </g>
     </g>
    </g>
    <g id="text_7">
     <!-- Mean final score -->
     <g style="fill: #333333" transform="translate(194.385781 258.028937) scale(0.1 -0.1)">
      <defs>
       <path id="DejaVuSans-4d" d="M 628 4666 
L 1569 4666 
L 2759 1491 
L 3956 4666 
L 4897 4666 
L 4897 0 
L 4281 0 
L 4281 4097 
L 3078 897 
L 2444 897 
L 1241 4097 
L 1241 0 
L 628 0 
L 628 4666 
z
" transform="scale(0.015625)"/>
       <path id="DejaVuSans-65" d="M 3597 1894 
L 3597 1613 
L 953 1613 
Q 991 1019 1311 708 
Q 1631 397 2203 397 
Q 2534 397 2845 478 
Q 3156 559 3463 722 
L 3463 178 
Q 3153 47 2828 -22 
Q 2503 -91 2169 -91 
Q 1331 -91 842 396 
Q 353 884 353 1716 
Q 353 2575 817 3079 
Q 1281 3584 2069 3584 
Q 2775 3584 3186 3129 
Q 3597 2675 3597 1894 
z
M 3022 2063 
Q 3016 2534 2758 2815 
Q 2500 3097 2075 3097 
Q 1594 3097 1305 2825 
Q 1016 2553 972 2059 
L 3022 2063 
z
" transform="scale(0.015625)"/>
       <path id="DejaVuSans-61" d="M 2194 1759 
Q 1497 1759 1228 1600 
Q 959 1441 959 1056 
Q 959 750 1161 570 
Q 1363 391 1709 391 
Q 2188 391 2477 730 
Q 2766 1069 2766 1631 
L 2766 1759 
L 2194 1759 
z
M 3341 1997 
L 3341 0 
L 2766 0 
L 2766 531 
Q 2569 213 2275 61 
Q 1981 -91 1556 -91 
Q 1019 -91 701 211 
Q 384 513 384 1019 
Q 384 1609 779 1909 
Q 1175 2209 1959 2209 
L 2766 2209 
L 2766 2266 
Q 2766 2663 2505 2880 
Q 2244 3097 1772 3097 
Q 1472 3097 1187 3025 
Q 903 2953 641 2809 
L 641 3341 
Q 956 3463 1253 3523 
Q 1550 3584 1831 3584 
Q 2591 3584 2966 3190 
Q 3341 2797 3341 1997 
z
" transform="scale(0.015625)"/>
       <path id="DejaVuSans-6e" d="M 3513 2113 
L 3513 0 
L 2938 0 
L 2938 2094 
Q 2938 2591 2744 2837 
Q 2550 3084 2163 3084 
Q 1697 3084 1428 2787 
Q 1159 2491 1159 1978 
L 1159 0 
L 581 0 
L 581 3500 
L 1159 3500 
L 1159 2956 
Q 1366 3272 1645 3428 
Q 1925 3584 2291 3584 
Q 2894 3584 3203 3211 
Q 3513 2838 3513 2113 
z
" transform="scale(0.015625)"/>
       <path id="DejaVuSans-20" transform="scale(0.015625)"/>
       <path id="DejaVuSans-66" d="M 2375 4863 
L 2375 4384 
L 1825 4384 
Q 1516 4384 1395 4259 
Q 1275 4134 1275 3809 
L 1275 3500 
L 2222 3500 
L 2222 3053 
L 1275 3053 
L 1275 0 
L 697 0 
L 697 3053 
L 147 3053 
L 147 3500 
L 697 3500 
L 697 3744 
Q 697 4328 969 4595 
Q 1241 4863 1831 4863 
L 2375 4863 
z
" transform="scale(0.015625)"/>
       <path id="DejaVuSans-69" d="M 603 3500 
L 1178 3500 
L 1178 0 
L 603 0 
L 603 3500 
z
M 603 4863 
L 1178 4863 
L 1178 4134 
L 603 4134 
L 603 4863 
z
" transform="scale(0.015625)"/>
       <path id="DejaVuSans-6c" d="M 603 4863 
L 1178 4863 
L 1178 0 
L 603 0 
L 603 4863 
z
" transform="scale(0.015625)"/>
       <path id="DejaVuSans-73" d="M 2834 3397 
L 2834 2853 
Q 2591 2978 2328 3040 
Q 2066 3103 1784 3103 
Q 1356 3103 1142 2972 
Q 928 2841 928 2578 
Q 928 2378 1081 2264 
Q 1234 2150 1697 2047 
L 1894 2003 
Q 2506 1872 2764 1633 
Q 3022 1394 3022 966 
Q 3022 478 2636 193 
Q 2250 -91 1575 -91 
Q 1294 -91 989 -36 
Q 684 19 347 128 
L 347 722 
Q 666 556 975 473 
Q 1284 391 1588 391 
Q 1994 391 2212 530 
Q 2431 669 2431 922 
Q 2431 1156 2273 1281 
Q 2116 1406 1581 1522 
L 1381 1569 
Q 847 1681 609 1914 
Q 372 2147 372 2553 
Q 372 3047 722 3315 
Q 1072 3584 1716 3584 
Q 2034 3584 2315 3537 
Q 2597 3491 2834 3397 
z
" transform="scale(0.015625)"/>
       <path id="DejaVuSans-63" d="M 3122 3366 
L 3122 2828 
Q 2878 2963 2633 3030 
Q 2388 3097 2138 3097 
Q 1578 3097 1268 2742 
Q 959 2388 959 1747 
Q 959 1106 1268 751 
Q 1578 397 2138 397 
Q 2388 397 2633 464 
Q 2878 531 3122 666 
L 3122 134 
Q 2881 22 2623 -34 
Q 2366 -91 2075 -91 
Q 1284 -91 818 406 
Q 353 903 353 1747 
Q 353 2603 823 3093 
Q 1294 3584 2113 3584 
Q 2378 3584 2631 3529 
Q 2884 3475 3122 3366 
z
" transform="scale(0.015625)"/>
       <path id="DejaVuSans-6f" d="M 1959 3097 
Q 1497 3097 1228 2736 
Q 959 2375 959 1747 
Q 959 1119 1226 758 
Q 1494 397 1959 397 
Q 2419 397 2687 759 
Q 2956 1122 2956 1747 
Q 2956 2369 2687 2733 
Q 2419 3097 1959 3097 
z
M 1959 3584 
Q 2709 3584 3137 3096 
Q 3566 2609 3566 1747 
Q 3566 888 3137 398 
Q 2709 -91 1959 -91 
Q 1206 -91 779 398 
Q 353 888 353 1747 
Q 353 2609 779 3096 
Q 1206 3584 1959 3584 
z
" transform="scale(0.015625)"/>
       <path id="DejaVuSans-72" d="M 2631 2963 
Q 2534 3019 2420 3045 
Q 2306 3072 2169 3072 
Q 1681 3072 1420 2755 
Q 1159 2438 1159 1844 
L 1159 0 
L 581 0 
L 581 3500 
L 1159 3500 
L 1159 2956 
Q 1341 3275 1631 3429 
Q 1922 3584 2338 3584 
Q 2397 3584 2469 3576 
Q 2541 3569 2628 3553 
L 2631 2963 
z
" transform="scale(0.015625)"/>
      </defs>
      <use xlink:href="#DejaVuSans-4d"/>
      <use xlink:href="#DejaVuSans-65" transform="translate(86.279297 0)"/>
      <use xlink:href="#DejaVuSans-61" transform="translate(147.802734 0)"/>
      <use xlink:href="#DejaVuSans-6e" transform="translate(209.082031 0)"/>
      <use xlink:href="#DejaVuSans-20" transform="translate(272.460938 0)"/>
      <use xlink:href="#DejaVuSans-66" transform="translate(304.248047 0)"/>
      <use xlink:href="#DejaVuSans-69" transform="translate(339.453125 0)"/>
      <use xlink:href="#DejaVuSans-6e" transform="translate(367.236328 0)"/>
      <use xlink:href="#DejaVuSans-61" transform="translate(430.615234 0)"/>
      <use xlink:href="#DejaVuSans-6c" transform="translate(491.894531 0)"/>
      <use xlink:href="#DejaVuSans-20" transform="translate(519.677734 0)"/>
      <use xlink:href="#DejaVuSans-73" transform="translate(551.464844 0)"/>
      <use xlink:href="#DejaVuSans-63" transform="translate(603.564453 0)"/>
      <use xlink:href="#DejaVuSans-6f" transform="translate(658.544922 0)"/>
      <use xlink:href="#DejaVuSans-72" transform="translate(719.726562 0)"/>
      <use xlink:href="#DejaVuSans-65" transform="translate(758.589844 0)"/>
     </g>
    </g>
   </g>
   <g id="matplotlib.axis_2">
    <g id="ytick_1">
     <g id="line2d_7">
      <defs>
       <path id="mad7b8d87ff" d="M 0 0 
L -3.5 0 
" style="stroke: #666666; stroke-width: 0.8"/>
      </defs>
      <g>
       <use xlink:href="#mad7b8d87ff" x="94.78625" y="211.385994" style="fill: #666666; stroke: #666666; stroke-width: 0.8"/>
      </g>
     </g>
     <g id="text_8">
      <!-- Python Programming -->
      <g style="fill: #666666" transform="translate(3.6 214.425369) scale(0.08 -0.08)">
       <defs>
        <path id="DejaVuSans-50" d="M 1259 4147 
L 1259 2394 
L 2053 2394 
Q 2494 2394 2734 2622 
Q 2975 2850 2975 3272 
Q 2975 3691 2734 3919 
Q 2494 4147 2053 4147 
L 1259 4147 
z
M 628 4666 
L 2053 4666 
Q 2838 4666 3239 4311 
Q 3641 3956 3641 3272 
Q 3641 2581 3239 2228 
Q 2838 1875 2053 1875 
L 1259 1875 
L 1259 0 
L 628 0 
L 628 4666 
z
" transform="scale(0.015625)"/>
        <path id="DejaVuSans-79" d="M 2059 -325 
Q 1816 -950 1584 -1140 
Q 1353 -1331 966 -1331 
L 506 -1331 
L 506 -850 
L 844 -850 
Q 1081 -850 1212 -737 
Q 1344 -625 1503 -206 
L 1606 56 
L 191 3500 
L 800 3500 
L 1894 763 
L 2988 3500 
L 3597 3500 
L 2059 -325 
z
" transform="scale(0.015625)"/>
        <path id="DejaVuSans-74" d="M 1172 4494 
L 1172 3500 
L 2356 3500 
L 2356 3053 
L 1172 3053 
L 1172 1153 
Q 1172 725 1289 603 
Q 1406 481 1766 481 
L 2356 481 
L 2356 0 
L 1766 0 
Q 1100 0 847 248 
Q 594 497 594 1153 
L 594 3053 
L 172 3053 
L 172 3500 
L 594 3500 
L 594 4494 
L 1172 4494 
z
" transform="scale(0.015625)"/>
        <path id="DejaVuSans-68" d="M 3513 2113 
L 3513 0 
L 2938 0 
L 2938 2094 
Q 2938 2591 2744 2837 
Q 2550 3084 2163 3084 
Q 1697 3084 1428 2787 
Q 1159 2491 1159 1978 
L 1159 0 
L 581 0 
L 581 4863 
L 1159 4863 
L 1159 2956 
Q 1366 3272 1645 3428 
Q 1925 3584 2291 3584 
Q 2894 3584 3203 3211 
Q 3513 2838 3513 2113 
z
" transform="scale(0.015625)"/>
        <path id="DejaVuSans-67" d="M 2906 1791 
Q 2906 2416 2648 2759 
Q 2391 3103 1925 3103 
Q 1463 3103 1205 2759 
Q 947 2416 947 1791 
Q 947 1169 1205 825 
Q 1463 481 1925 481 
Q 2391 481 2648 825 
Q 2906 1169 2906 1791 
z
M 3481 434 
Q 3481 -459 3084 -895 
Q 2688 -1331 1869 -1331 
Q 1566 -1331 1297 -1286 
Q 1028 -1241 775 -1147 
L 775 -588 
Q 1028 -725 1275 -790 
Q 1522 -856 1778 -856 
Q 2344 -856 2625 -561 
Q 2906 -266 2906 331 
L 2906 616 
Q 2728 306 2450 153 
Q 2172 0 1784 0 
Q 1141 0 747 490 
Q 353 981 353 1791 
Q 353 2603 747 3093 
Q 1141 3584 1784 3584 
Q 2172 3584 2450 3431 
Q 2728 3278 2906 2969 
L 2906 3500 
L 3481 3500 
L 3481 434 
z
" transform="scale(0.015625)"/>
        <path id="DejaVuSans-6d" d="M 3328 2828 
Q 3544 3216 3844 3400 
Q 4144 3584 4550 3584 
Q 5097 3584 5394 3201 
Q 5691 2819 5691 2113 
L 5691 0 
L 5113 0 
L 5113 2094 
Q 5113 2597 4934 2840 
Q 4756 3084 4391 3084 
Q 3944 3084 3684 2787 
Q 3425 2491 3425 1978 
L 3425 0 
L 2847 0 
L 2847 2094 
Q 2847 2600 2669 2842 
Q 2491 3084 2119 3084 
Q 1678 3084 1418 2786 
Q 1159 2488 1159 1978 
L 1159 0 
L 581 0 
L 581 3500 
L 1159 3500 
L 1159 2956 
Q 1356 3278 1631 3431 
Q 1906 3584 2284 3584 
Q 2666 3584 2933 3390 
Q 3200 3197 3328 2828 
z
" transform="scale(0.015625)"/>
       </defs>
       <use xlink:href="#DejaVuSans-50"/>
       <use xlink:href="#DejaVuSans-79" transform="translate(60.302734 0)"/>
       <use xlink:href="#DejaVuSans-74" transform="translate(119.482422 0)"/>
       <use xlink:href="#DejaVuSans-68" transform="translate(158.691406 0)"/>
       <use xlink:href="#DejaVuSans-6f" transform="translate(222.070312 0)"/>
       <use xlink:href="#DejaVuSans-6e" transform="translate(283.251953 0)"/>
       <use xlink:href="#DejaVuSans-20" transform="translate(346.630859 0)"/>
       <use xlink:href="#DejaVuSans-50" transform="translate(378.417969 0)"/>
       <use xlink:href="#DejaVuSans-72" transform="translate(436.970703 0)"/>
       <use xlink:href="#DejaVuSans-6f" transform="translate(475.833984 0)"/>
       <use xlink:href="#DejaVuSans-67" transform="translate(537.015625 0)"/>
       <use xlink:href="#DejaVuSans-72" transform="translate(600.492188 0)"/>
       <use xlink:href="#DejaVuSans-61" transform="translate(641.605469 0)"/>
       <use xlink:href="#DejaVuSans-6d" transform="translate(702.884766 0)"/>
       <use xlink:href="#DejaVuSans-6d" transform="translate(800.296875 0)"/>
       <use xlink:href="#DejaVuSans-69" transform="translate(897.708984 0)"/>
       <use xlink:href="#DejaVuSans-6e" transform="translate(925.492188 0)"/>
       <use xlink:href="#DejaVuSans-67" transform="translate(988.871094 0)"/>
      </g>
     </g>
    </g>
    <g id="ytick_2">
     <g id="line2d_8">
      <g>
       <use xlink:href="#mad7b8d87ff" x="94.78625" y="181.962796" style="fill: #666666; stroke: #666666; stroke-width: 0.8"/>
      </g>
     </g>
     <g id="text_9">
      <!-- Databases -->
      <g style="fill: #666666" transform="translate(45.44625 185.002171) scale(0.08 -0.08)">
       <defs>
        <path id="DejaVuSans-44" d="M 1259 4147 
L 1259 519 
L 2022 519 
Q 2988 519 3436 956 
Q 3884 1394 3884 2338 
Q 3884 3275 3436 3711 
Q 2988 4147 2022 4147 
L 1259 4147 
z
M 628 4666 
L 1925 4666 
Q 3281 4666 3915 4102 
Q 4550 3538 4550 2338 
Q 4550 1131 3912 565 
Q 3275 0 1925 0 
L 628 0 
L 628 4666 
z
" transform="scale(0.015625)"/>
        <path id="DejaVuSans-62" d="M 3116 1747 
Q 3116 2381 2855 2742 
Q 2594 3103 2138 3103 
Q 1681 3103 1420 2742 
Q 1159 2381 1159 1747 
Q 1159 1113 1420 752 
Q 1681 391 2138 391 
Q 2594 391 2855 752 
Q 3116 1113 3116 1747 
z
M 1159 2969 
Q 1341 3281 1617 3432 
Q 1894 3584 2278 3584 
Q 2916 3584 3314 3078 
Q 3713 2572 3713 1747 
Q 3713 922 3314 415 
Q 2916 -91 2278 -91 
Q 1894 -91 1617 61 
Q 1341 213 1159 525 
L 1159 0 
L 581 0 
L 581 4863 
L 1159 4863 
L 1159 2969 
z
" transform="scale(0.015625)"/>
       </defs>
       <use xlink:href="#DejaVuSans-44"/>
       <use xlink:href="#DejaVuSans-61" transform="translate(77.001953 0)"/>
       <use xlink:href="#DejaVuSans-74" transform="translate(138.28125 0)"/>
       <use xlink:href="#DejaVuSans-61" transform="translate(177.490234 0)"/>
       <use xlink:href="#DejaVuSans-62" transform="translate(238.769531 0)"/>
       <use xlink:href="#DejaVuSans-61" transform="translate(302.246094 0)"/>
       <use xlink:href="#DejaVuSans-73" transform="translate(363.525391 0)"/>
       <use xlink:href="#DejaVuSans-65" transform="translate(415.625 0)"/>
       <use xlink:href="#DejaVuSans-73" transform="translate(477.148438 0)"/>
      </g>
     </g>
    </g>
    <g id="ytick_3">
     <g id="line2d_9">
      <g>
       <use xlink:href="#mad7b8d87ff" x="94.78625" y="152.539599" style="fill: #666666; stroke: #666666; stroke-width: 0.8"/>
      </g>
     </g>
     <g id="text_10">
      <!-- Linear Algebra -->
      <g style="fill: #666666" transform="translate(29.41375 155.578974) scale(0.08 -0.08)">
       <defs>
        <path id="DejaVuSans-4c" d="M 628 4666 
L 1259 4666 
L 1259 531 
L 3531 531 
L 3531 0 
L 628 0 
L 628 4666 
z
" transform="scale(0.015625)"/>
        <path id="DejaVuSans-41" d="M 2188 4044 
L 1331 1722 
L 3047 1722 
L 2188 4044 
z
M 1831 4666 
L 2547 4666 
L 4325 0 
L 3669 0 
L 3244 1197 
L 1141 1197 
L 716 0 
L 50 0 
L 1831 4666 
z
" transform="scale(0.015625)"/>
       </defs>
       <use xlink:href="#DejaVuSans-4c"/>
       <use xlink:href="#DejaVuSans-69" transform="translate(55.712891 0)"/>
       <use xlink:href="#DejaVuSans-6e" transform="translate(83.496094 0)"/>
       <use xlink:href="#DejaVuSans-65" transform="translate(146.875 0)"/>
       <use xlink:href="#DejaVuSans-61" transform="translate(208.398438 0)"/>
       <use xlink:href="#DejaVuSans-72" transform="translate(269.677734 0)"/>
       <use xlink:href="#DejaVuSans-20" transform="translate(310.791016 0)"/>
       <use xlink:href="#DejaVuSans-41" transform="translate(342.578125 0)"/>
       <use xlink:href="#DejaVuSans-6c" transform="translate(410.986328 0)"/>
       <use xlink:href="#DejaVuSans-67" transform="translate(438.769531 0)"/>
       <use xlink:href="#DejaVuSans-65" transform="translate(502.246094 0)"/>
       <use xlink:href="#DejaVuSans-62" transform="translate(563.769531 0)"/>
       <use xlink:href="#DejaVuSans-72" transform="translate(627.246094 0)"/>
       <use xlink:href="#DejaVuSans-61" transform="translate(668.359375 0)"/>
      </g>
     </g>
    </g>
    <g id="ytick_4">
     <g id="line2d_10">
      <g>
       <use xlink:href="#mad7b8d87ff" x="94.78625" y="123.116401" style="fill: #666666; stroke: #666666; stroke-width: 0.8"/>
      </g>
     </g>
     <g id="text_11">
      <!-- Data Structures -->
      <g style="fill: #666666" transform="translate(24.765 126.155776) scale(0.08 -0.08)">
       <defs>
        <path id="DejaVuSans-53" d="M 3425 4513 
L 3425 3897 
Q 3066 4069 2747 4153 
Q 2428 4238 2131 4238 
Q 1616 4238 1336 4038 
Q 1056 3838 1056 3469 
Q 1056 3159 1242 3001 
Q 1428 2844 1947 2747 
L 2328 2669 
Q 3034 2534 3370 2195 
Q 3706 1856 3706 1288 
Q 3706 609 3251 259 
Q 2797 -91 1919 -91 
Q 1588 -91 1214 -16 
Q 841 59 441 206 
L 441 856 
Q 825 641 1194 531 
Q 1563 422 1919 422 
Q 2459 422 2753 634 
Q 3047 847 3047 1241 
Q 3047 1584 2836 1778 
Q 2625 1972 2144 2069 
L 1759 2144 
Q 1053 2284 737 2584 
Q 422 2884 422 3419 
Q 422 4038 858 4394 
Q 1294 4750 2059 4750 
Q 2388 4750 2728 4690 
Q 3069 4631 3425 4513 
z
" transform="scale(0.015625)"/>
        <path id="DejaVuSans-75" d="M 544 1381 
L 544 3500 
L 1119 3500 
L 1119 1403 
Q 1119 906 1312 657 
Q 1506 409 1894 409 
Q 2359 409 2629 706 
Q 2900 1003 2900 1516 
L 2900 3500 
L 3475 3500 
L 3475 0 
L 2900 0 
L 2900 538 
Q 2691 219 2414 64 
Q 2138 -91 1772 -91 
Q 1169 -91 856 284 
Q 544 659 544 1381 
z
M 1991 3584 
L 1991 3584 
z
" transform="scale(0.015625)"/>
       </defs>
       <use xlink:href="#DejaVuSans-44"/>
       <use xlink:href="#DejaVuSans-61" transform="translate(77.001953 0)"/>
       <use xlink:href="#DejaVuSans-74" transform="translate(138.28125 0)"/>
       <use xlink:href="#DejaVuSans-61" transform="translate(177.490234 0)"/>
       <use xlink:href="#DejaVuSans-20" transform="translate(238.769531 0)"/>
       <use xlink:href="#DejaVuSans-53" transform="translate(270.556641 0)"/>
       <use xlink:href="#DejaVuSans-74" transform="translate(334.033203 0)"/>
       <use xlink:href="#DejaVuSans-72" transform="translate(373.242188 0)"/>
       <use xlink:href="#DejaVuSans-75" transform="translate(414.355469 0)"/>
       <use xlink:href="#DejaVuSans-63" transform="translate(477.734375 0)"/>
       <use xlink:href="#DejaVuSans-74" transform="translate(532.714844 0)"/>
       <use xlink:href="#DejaVuSans-75" transform="translate(571.923828 0)"/>
       <use xlink:href="#DejaVuSans-72" transform="translate(635.302734 0)"/>
       <use xlink:href="#DejaVuSans-65" transform="translate(674.166016 0)"/>
       <use xlink:href="#DejaVuSans-73" transform="translate(735.689453 0)"/>
      </g>
     </g>
    </g>
    <g id="ytick_5">
     <g id="line2d_11">
      <g>
       <use xlink:href="#mad7b8d87ff" x="94.78625" y="93.693204" style="fill: #666666; stroke: #666666; stroke-width: 0.8"/>
      </g>
     </g>
     <g id="text_12">
      <!-- Statistics -->
      <g style="fill: #666666" transform="translate(51.2175 96.732579) scale(0.08 -0.08)">
       <use xlink:href="#DejaVuSans-53"/>
       <use xlink:href="#DejaVuSans-74" transform="translate(63.476562 0)"/>
       <use xlink:href="#DejaVuSans-61" transform="translate(102.685547 0)"/>
       <use xlink:href="#DejaVuSans-74" transform="translate(163.964844 0)"/>
       <use xlink:href="#DejaVuSans-69" transform="translate(203.173828 0)"/>
       <use xlink:href="#DejaVuSans-73" transform="translate(230.957031 0)"/>
       <use xlink:href="#DejaVuSans-74" transform="translate(283.056641 0)"/>
       <use xlink:href="#DejaVuSans-69" transform="translate(322.265625 0)"/>
       <use xlink:href="#DejaVuSans-63" transform="translate(350.048828 0)"/>
       <use xlink:href="#DejaVuSans-73" transform="translate(405.029297 0)"/>
      </g>
     </g>
    </g>
    <g id="ytick_6">
     <g id="line2d_12">
      <g>
       <use xlink:href="#mad7b8d87ff" x="94.78625" y="64.270006" style="fill: #666666; stroke: #666666; stroke-width: 0.8"/>
      </g>
     </g>
     <g id="text_13">
      <!-- Machine Learning -->
      <g style="fill: #666666" transform="translate(17.0225 67.309381) scale(0.08 -0.08)">
       <use xlink:href="#DejaVuSans-4d"/>
       <use xlink:href="#DejaVuSans-61" transform="translate(86.279297 0)"/>
       <use xlink:href="#DejaVuSans-63" transform="translate(147.558594 0)"/>
       <use xlink:href="#DejaVuSans-68" transform="translate(202.539062 0)"/>
       <use xlink:href="#DejaVuSans-69" transform="translate(265.917969 0)"/>
       <use xlink:href="#DejaVuSans-6e" transform="translate(293.701172 0)"/>
       <use xlink:href="#DejaVuSans-65" transform="translate(357.080078 0)"/>
       <use xlink:href="#DejaVuSans-20" transform="translate(418.603516 0)"/>
       <use xlink:href="#DejaVuSans-4c" transform="translate(450.390625 0)"/>
       <use xlink:href="#DejaVuSans-65" transform="translate(504.353516 0)"/>
       <use xlink:href="#DejaVuSans-61" transform="translate(565.876953 0)"/>
       <use xlink:href="#DejaVuSans-72" transform="translate(627.15625 0)"/>
       <use xlink:href="#DejaVuSans-6e" transform="translate(666.519531 0)"/>
       <use xlink:href="#DejaVuSans-69" transform="translate(729.898438 0)"/>
       <use xlink:href="#DejaVuSans-6e" transform="translate(757.681641 0)"/>
       <use xlink:href="#DejaVuSans-67" transform="translate(821.060547 0)"/>
      </g>
     </g>
    </g>
   </g>
   <g id="patch_9">
    <path d="M 94.78625 231.688 
L 94.78625 43.968 
" style="fill: none; stroke: #bbbbbb; stroke-width: 0.8; stroke-linejoin: miter; stroke-linecap: square"/>
   </g>
   <g id="patch_10">
    <path d="M 94.78625 231.688 
L 375.99625 231.688 
" style="fill: none; stroke: #bbbbbb; stroke-width: 0.8; stroke-linejoin: miter; stroke-linecap: square"/>
   </g>
   <g id="text_14">
    <!-- No preattentive signal -->
    <g style="fill: #1e293b" transform="translate(165.7475 37.968) scale(0.11 -0.11)">
     <defs>
      <path id="DejaVuSans-Bold-4e" d="M 588 4666 
L 1931 4666 
L 3628 1466 
L 3628 4666 
L 4769 4666 
L 4769 0 
L 3425 0 
L 1728 3200 
L 1728 0 
L 588 0 
L 588 4666 
z
" transform="scale(0.015625)"/>
      <path id="DejaVuSans-Bold-6f" d="M 2203 2784 
Q 1831 2784 1636 2517 
Q 1441 2250 1441 1747 
Q 1441 1244 1636 976 
Q 1831 709 2203 709 
Q 2569 709 2762 976 
Q 2956 1244 2956 1747 
Q 2956 2250 2762 2517 
Q 2569 2784 2203 2784 
z
M 2203 3584 
Q 3106 3584 3614 3096 
Q 4122 2609 4122 1747 
Q 4122 884 3614 396 
Q 3106 -91 2203 -91 
Q 1297 -91 786 396 
Q 275 884 275 1747 
Q 275 2609 786 3096 
Q 1297 3584 2203 3584 
z
" transform="scale(0.015625)"/>
      <path id="DejaVuSans-Bold-20" transform="scale(0.015625)"/>
      <path id="DejaVuSans-Bold-70" d="M 1656 506 
L 1656 -1331 
L 538 -1331 
L 538 3500 
L 1656 3500 
L 1656 2988 
Q 1888 3294 2169 3439 
Q 2450 3584 2816 3584 
Q 3463 3584 3878 3070 
Q 4294 2556 4294 1747 
Q 4294 938 3878 423 
Q 3463 -91 2816 -91 
Q 2450 -91 2169 54 
Q 1888 200 1656 506 
z
M 2400 2772 
Q 2041 2772 1848 2508 
Q 1656 2244 1656 1747 
Q 1656 1250 1848 986 
Q 2041 722 2400 722 
Q 2759 722 2948 984 
Q 3138 1247 3138 1747 
Q 3138 2247 2948 2509 
Q 2759 2772 2400 2772 
z
" transform="scale(0.015625)"/>
      <path id="DejaVuSans-Bold-72" d="M 3138 2547 
Q 2991 2616 2845 2648 
Q 2700 2681 2553 2681 
Q 2122 2681 1889 2404 
Q 1656 2128 1656 1613 
L 1656 0 
L 538 0 
L 538 3500 
L 1656 3500 
L 1656 2925 
Q 1872 3269 2151 3426 
Q 2431 3584 2822 3584 
Q 2878 3584 2943 3579 
Q 3009 3575 3134 3559 
L 3138 2547 
z
" transform="scale(0.015625)"/>
      <path id="DejaVuSans-Bold-65" d="M 4031 1759 
L 4031 1441 
L 1416 1441 
Q 1456 1047 1700 850 
Q 1944 653 2381 653 
Q 2734 653 3104 758 
Q 3475 863 3866 1075 
L 3866 213 
Q 3469 63 3072 -14 
Q 2675 -91 2278 -91 
Q 1328 -91 801 392 
Q 275 875 275 1747 
Q 275 2603 792 3093 
Q 1309 3584 2216 3584 
Q 3041 3584 3536 3087 
Q 4031 2591 4031 1759 
z
M 2881 2131 
Q 2881 2450 2695 2645 
Q 2509 2841 2209 2841 
Q 1884 2841 1681 2658 
Q 1478 2475 1428 2131 
L 2881 2131 
z
" transform="scale(0.015625)"/>
      <path id="DejaVuSans-Bold-61" d="M 2106 1575 
Q 1756 1575 1579 1456 
Q 1403 1338 1403 1106 
Q 1403 894 1545 773 
Q 1688 653 1941 653 
Q 2256 653 2472 879 
Q 2688 1106 2688 1447 
L 2688 1575 
L 2106 1575 
z
M 3816 1997 
L 3816 0 
L 2688 0 
L 2688 519 
Q 2463 200 2181 54 
Q 1900 -91 1497 -91 
Q 953 -91 614 226 
Q 275 544 275 1050 
Q 275 1666 698 1953 
Q 1122 2241 2028 2241 
L 2688 2241 
L 2688 2328 
Q 2688 2594 2478 2717 
Q 2269 2841 1825 2841 
Q 1466 2841 1156 2769 
Q 847 2697 581 2553 
L 581 3406 
Q 941 3494 1303 3539 
Q 1666 3584 2028 3584 
Q 2975 3584 3395 3211 
Q 3816 2838 3816 1997 
z
" transform="scale(0.015625)"/>
      <path id="DejaVuSans-Bold-74" d="M 1759 4494 
L 1759 3500 
L 2913 3500 
L 2913 2700 
L 1759 2700 
L 1759 1216 
Q 1759 972 1856 886 
Q 1953 800 2241 800 
L 2816 800 
L 2816 0 
L 1856 0 
Q 1194 0 917 276 
Q 641 553 641 1216 
L 641 2700 
L 84 2700 
L 84 3500 
L 641 3500 
L 641 4494 
L 1759 4494 
z
" transform="scale(0.015625)"/>
      <path id="DejaVuSans-Bold-6e" d="M 4056 2131 
L 4056 0 
L 2931 0 
L 2931 347 
L 2931 1631 
Q 2931 2084 2911 2256 
Q 2891 2428 2841 2509 
Q 2775 2619 2662 2680 
Q 2550 2741 2406 2741 
Q 2056 2741 1856 2470 
Q 1656 2200 1656 1722 
L 1656 0 
L 538 0 
L 538 3500 
L 1656 3500 
L 1656 2988 
Q 1909 3294 2193 3439 
Q 2478 3584 2822 3584 
Q 3428 3584 3742 3212 
Q 4056 2841 4056 2131 
z
" transform="scale(0.015625)"/>
      <path id="DejaVuSans-Bold-69" d="M 538 3500 
L 1656 3500 
L 1656 0 
L 538 0 
L 538 3500 
z
M 538 4863 
L 1656 4863 
L 1656 3950 
L 538 3950 
L 538 4863 
z
" transform="scale(0.015625)"/>
      <path id="DejaVuSans-Bold-76" d="M 97 3500 
L 1216 3500 
L 2088 1081 
L 2956 3500 
L 4078 3500 
L 2700 0 
L 1472 0 
L 97 3500 
z
" transform="scale(0.015625)"/>
      <path id="DejaVuSans-Bold-73" d="M 3272 3391 
L 3272 2541 
Q 2913 2691 2578 2766 
Q 2244 2841 1947 2841 
Q 1628 2841 1473 2761 
Q 1319 2681 1319 2516 
Q 1319 2381 1436 2309 
Q 1553 2238 1856 2203 
L 2053 2175 
Q 2913 2066 3209 1816 
Q 3506 1566 3506 1031 
Q 3506 472 3093 190 
Q 2681 -91 1863 -91 
Q 1516 -91 1145 -36 
Q 775 19 384 128 
L 384 978 
Q 719 816 1070 734 
Q 1422 653 1784 653 
Q 2113 653 2278 743 
Q 2444 834 2444 1013 
Q 2444 1163 2330 1236 
Q 2216 1309 1875 1350 
L 1678 1375 
Q 931 1469 631 1722 
Q 331 1975 331 2491 
Q 331 3047 712 3315 
Q 1094 3584 1881 3584 
Q 2191 3584 2531 3537 
Q 2872 3491 3272 3391 
z
" transform="scale(0.015625)"/>
      <path id="DejaVuSans-Bold-67" d="M 2919 594 
Q 2688 288 2409 144 
Q 2131 0 1766 0 
Q 1125 0 706 504 
Q 288 1009 288 1791 
Q 288 2575 706 3076 
Q 1125 3578 1766 3578 
Q 2131 3578 2409 3434 
Q 2688 3291 2919 2981 
L 2919 3500 
L 4044 3500 
L 4044 353 
Q 4044 -491 3511 -936 
Q 2978 -1381 1966 -1381 
Q 1638 -1381 1331 -1331 
Q 1025 -1281 716 -1178 
L 716 -306 
Q 1009 -475 1290 -558 
Q 1572 -641 1856 -641 
Q 2406 -641 2662 -400 
Q 2919 -159 2919 353 
L 2919 594 
z
M 2181 2772 
Q 1834 2772 1640 2515 
Q 1447 2259 1447 1791 
Q 1447 1309 1634 1061 
Q 1822 813 2181 813 
Q 2531 813 2725 1069 
Q 2919 1325 2919 1791 
Q 2919 2259 2725 2515 
Q 2531 2772 2181 2772 
z
" transform="scale(0.015625)"/>
      <path id="DejaVuSans-Bold-6c" d="M 538 4863 
L 1656 4863 
L 1656 0 
L 538 0 
L 538 4863 
z
" transform="scale(0.015625)"/>
     </defs>
     <use xlink:href="#DejaVuSans-Bold-4e"/>
     <use xlink:href="#DejaVuSans-Bold-6f" transform="translate(83.691406 0)"/>
     <use xlink:href="#DejaVuSans-Bold-20" transform="translate(152.392578 0)"/>
     <use xlink:href="#DejaVuSans-Bold-70" transform="translate(187.207031 0)"/>
     <use xlink:href="#DejaVuSans-Bold-72" transform="translate(258.789062 0)"/>
     <use xlink:href="#DejaVuSans-Bold-65" transform="translate(308.105469 0)"/>
     <use xlink:href="#DejaVuSans-Bold-61" transform="translate(375.927734 0)"/>
     <use xlink:href="#DejaVuSans-Bold-74" transform="translate(443.408203 0)"/>
     <use xlink:href="#DejaVuSans-Bold-74" transform="translate(491.210938 0)"/>
     <use xlink:href="#DejaVuSans-Bold-65" transform="translate(539.013672 0)"/>
     <use xlink:href="#DejaVuSans-Bold-6e" transform="translate(606.835938 0)"/>
     <use xlink:href="#DejaVuSans-Bold-74" transform="translate(678.027344 0)"/>
     <use xlink:href="#DejaVuSans-Bold-69" transform="translate(725.830078 0)"/>
     <use xlink:href="#DejaVuSans-Bold-76" transform="translate(760.107422 0)"/>
     <use xlink:href="#DejaVuSans-Bold-65" transform="translate(825.292969 0)"/>
     <use xlink:href="#DejaVuSans-Bold-20" transform="translate(893.115234 0)"/>
     <use xlink:href="#DejaVuSans-Bold-73" transform="translate(927.929688 0)"/>
     <use xlink:href="#DejaVuSans-Bold-69" transform="translate(987.451172 0)"/>
     <use xlink:href="#DejaVuSans-Bold-67" transform="translate(1021.728516 0)"/>
     <use xlink:href="#DejaVuSans-Bold-6e" transform="translate(1093.310547 0)"/>
     <use xlink:href="#DejaVuSans-Bold-61" transform="translate(1164.501953 0)"/>
     <use xlink:href="#DejaVuSans-Bold-6c" transform="translate(1231.982422 0)"/>
    </g>
   </g>
  </g>
  <g id="axes_2">
   <g id="patch_11">
    <path d="M 485.38625 231.688 
L 766.59625 231.688 
L 766.59625 43.968 
L 485.38625 43.968 
z
" style="fill: #ffffff"/>
   </g>
   <g id="patch_12">
    <path d="M 485.38625 223.155273 
L 652.285791 223.155273 
L 652.285791 199.616715 
L 485.38625 199.616715 
z
" clip-path="url(#pfdddfb6c67)" style="fill: #adb5bd"/>
   </g>
   <g id="patch_13">
    <path d="M 485.38625 193.732075 
L 653.1245 193.732075 
L 653.1245 170.193517 
L 485.38625 170.193517 
z
" clip-path="url(#pfdddfb6c67)" style="fill: #adb5bd"/>
   </g>
   <g id="patch_14">
    <path d="M 485.38625 164.308878 
L 653.173009 164.308878 
L 653.173009 140.77032 
L 485.38625 140.77032 
z
" clip-path="url(#pfdddfb6c67)" style="fill: #adb5bd"/>
   </g>
   <g id="patch_15">
    <path d="M 485.38625 134.88568 
L 653.180742 134.88568 
L 653.180742 111.347122 
L 485.38625 111.347122 
z
" clip-path="url(#pfdddfb6c67)" style="fill: #adb5bd"/>
   </g>
   <g id="patch_16">
    <path d="M 485.38625 105.462483 
L 653.544909 105.462483 
L 653.544909 81.923925 
L 485.38625 81.923925 
z
" clip-path="url(#pfdddfb6c67)" style="fill: #adb5bd"/>
   </g>
   <g id="patch_17">
    <path d="M 485.38625 76.039285 
L 656.319045 76.039285 
L 656.319045 52.500727 
L 485.38625 52.500727 
z
" clip-path="url(#pfdddfb6c67)" style="fill: #009e73"/>
   </g>
   <g id="matplotlib.axis_3">
    <g id="xtick_7">
     <g id="line2d_13">
      <g>
       <use xlink:href="#m335a836629" x="485.38625" y="231.688" style="fill: #666666; stroke: #666666; stroke-width: 0.8"/>
      </g>
     </g>
     <g id="text_15">
      <!-- 0 -->
      <g style="fill: #666666" transform="translate(482.84125 244.76675) scale(0.08 -0.08)">
       <use xlink:href="#DejaVuSans-30"/>
      </g>
     </g>
    </g>
    <g id="xtick_8">
     <g id="line2d_14">
      <g>
       <use xlink:href="#m335a836629" x="541.62825" y="231.688" style="fill: #666666; stroke: #666666; stroke-width: 0.8"/>
      </g>
     </g>
     <g id="text_16">
      <!-- 20 -->
      <g style="fill: #666666" transform="translate(536.53825 244.76675) scale(0.08 -0.08)">
       <use xlink:href="#DejaVuSans-32"/>
       <use xlink:href="#DejaVuSans-30" transform="translate(63.623047 0)"/>
      </g>
     </g>
    </g>
    <g id="xtick_9">
     <g id="line2d_15">
      <g>
       <use xlink:href="#m335a836629" x="597.87025" y="231.688" style="fill: #666666; stroke: #666666; stroke-width: 0.8"/>
      </g>
     </g>
     <g id="text_17">
      <!-- 40 -->
      <g style="fill: #666666" transform="translate(592.78025 244.76675) scale(0.08 -0.08)">
       <use xlink:href="#DejaVuSans-34"/>
       <use xlink:href="#DejaVuSans-30" transform="translate(63.623047 0)"/>
      </g>
     </g>
    </g>
    <g id="xtick_10">
     <g id="line2d_16">
      <g>
       <use xlink:href="#m335a836629" x="654.11225" y="231.688" style="fill: #666666; stroke: #666666; stroke-width: 0.8"/>
      </g>
     </g>
     <g id="text_18">
      <!-- 60 -->
      <g style="fill: #666666" transform="translate(649.02225 244.76675) scale(0.08 -0.08)">
       <use xlink:href="#DejaVuSans-36"/>
       <use xlink:href="#DejaVuSans-30" transform="translate(63.623047 0)"/>
      </g>
     </g>
    </g>
    <g id="xtick_11">
     <g id="line2d_17">
      <g>
       <use xlink:href="#m335a836629" x="710.35425" y="231.688" style="fill: #666666; stroke: #666666; stroke-width: 0.8"/>
      </g>
     </g>
     <g id="text_19">
      <!-- 80 -->
      <g style="fill: #666666" transform="translate(705.26425 244.76675) scale(0.08 -0.08)">
       <use xlink:href="#DejaVuSans-38"/>
       <use xlink:href="#DejaVuSans-30" transform="translate(63.623047 0)"/>
      </g>
     </g>
    </g>
    <g id="xtick_12">
     <g id="line2d_18">
      <g>
       <use xlink:href="#m335a836629" x="766.59625" y="231.688" style="fill: #666666; stroke: #666666; stroke-width: 0.8"/>
      </g>
     </g>
     <g id="text_20">
      <!-- 100 -->
      <g style="fill: #666666" transform="translate(758.96125 244.76675) scale(0.08 -0.08)">
       <use xlink:href="#DejaVuSans-31"/>
       <use xlink:href="#DejaVuSans-30" transform="translate(63.623047 0)"/>
       <use xlink:href="#DejaVuSans-30" transform="translate(127.246094 0)"/>
      </g>
     </g>
    </g>
    <g id="text_21">
     <!-- Mean final score -->
     <g style="fill: #333333" transform="translate(584.985781 258.028937) scale(0.1 -0.1)">
      <use xlink:href="#DejaVuSans-4d"/>
      <use xlink:href="#DejaVuSans-65" transform="translate(86.279297 0)"/>
      <use xlink:href="#DejaVuSans-61" transform="translate(147.802734 0)"/>
      <use xlink:href="#DejaVuSans-6e" transform="translate(209.082031 0)"/>
      <use xlink:href="#DejaVuSans-20" transform="translate(272.460938 0)"/>
      <use xlink:href="#DejaVuSans-66" transform="translate(304.248047 0)"/>
      <use xlink:href="#DejaVuSans-69" transform="translate(339.453125 0)"/>
      <use xlink:href="#DejaVuSans-6e" transform="translate(367.236328 0)"/>
      <use xlink:href="#DejaVuSans-61" transform="translate(430.615234 0)"/>
      <use xlink:href="#DejaVuSans-6c" transform="translate(491.894531 0)"/>
      <use xlink:href="#DejaVuSans-20" transform="translate(519.677734 0)"/>
      <use xlink:href="#DejaVuSans-73" transform="translate(551.464844 0)"/>
      <use xlink:href="#DejaVuSans-63" transform="translate(603.564453 0)"/>
      <use xlink:href="#DejaVuSans-6f" transform="translate(658.544922 0)"/>
      <use xlink:href="#DejaVuSans-72" transform="translate(719.726562 0)"/>
      <use xlink:href="#DejaVuSans-65" transform="translate(758.589844 0)"/>
     </g>
    </g>
   </g>
   <g id="matplotlib.axis_4">
    <g id="ytick_7">
     <g id="line2d_19">
      <g>
       <use xlink:href="#mad7b8d87ff" x="485.38625" y="211.385994" style="fill: #666666; stroke: #666666; stroke-width: 0.8"/>
      </g>
     </g>
     <g id="text_22">
      <!-- Python Programming -->
      <g style="fill: #666666" transform="translate(394.2 214.425369) scale(0.08 -0.08)">
       <use xlink:href="#DejaVuSans-50"/>
       <use xlink:href="#DejaVuSans-79" transform="translate(60.302734 0)"/>
       <use xlink:href="#DejaVuSans-74" transform="translate(119.482422 0)"/>
       <use xlink:href="#DejaVuSans-68" transform="translate(158.691406 0)"/>
       <use xlink:href="#DejaVuSans-6f" transform="translate(222.070312 0)"/>
       <use xlink:href="#DejaVuSans-6e" transform="translate(283.251953 0)"/>
       <use xlink:href="#DejaVuSans-20" transform="translate(346.630859 0)"/>
       <use xlink:href="#DejaVuSans-50" transform="translate(378.417969 0)"/>
       <use xlink:href="#DejaVuSans-72" transform="translate(436.970703 0)"/>
       <use xlink:href="#DejaVuSans-6f" transform="translate(475.833984 0)"/>
       <use xlink:href="#DejaVuSans-67" transform="translate(537.015625 0)"/>
       <use xlink:href="#DejaVuSans-72" transform="translate(600.492188 0)"/>
       <use xlink:href="#DejaVuSans-61" transform="translate(641.605469 0)"/>
       <use xlink:href="#DejaVuSans-6d" transform="translate(702.884766 0)"/>
       <use xlink:href="#DejaVuSans-6d" transform="translate(800.296875 0)"/>
       <use xlink:href="#DejaVuSans-69" transform="translate(897.708984 0)"/>
       <use xlink:href="#DejaVuSans-6e" transform="translate(925.492188 0)"/>
       <use xlink:href="#DejaVuSans-67" transform="translate(988.871094 0)"/>
      </g>
     </g>
    </g>
    <g id="ytick_8">
     <g id="line2d_20">
      <g>
       <use xlink:href="#mad7b8d87ff" x="485.38625" y="181.962796" style="fill: #666666; stroke: #666666; stroke-width: 0.8"/>
      </g>
     </g>
     <g id="text_23">
      <!-- Databases -->
      <g style="fill: #666666" transform="translate(436.04625 185.002171) scale(0.08 -0.08)">
       <use xlink:href="#DejaVuSans-44"/>
       <use xlink:href="#DejaVuSans-61" transform="translate(77.001953 0)"/>
       <use xlink:href="#DejaVuSans-74" transform="translate(138.28125 0)"/>
       <use xlink:href="#DejaVuSans-61" transform="translate(177.490234 0)"/>
       <use xlink:href="#DejaVuSans-62" transform="translate(238.769531 0)"/>
       <use xlink:href="#DejaVuSans-61" transform="translate(302.246094 0)"/>
       <use xlink:href="#DejaVuSans-73" transform="translate(363.525391 0)"/>
       <use xlink:href="#DejaVuSans-65" transform="translate(415.625 0)"/>
       <use xlink:href="#DejaVuSans-73" transform="translate(477.148438 0)"/>
      </g>
     </g>
    </g>
    <g id="ytick_9">
     <g id="line2d_21">
      <g>
       <use xlink:href="#mad7b8d87ff" x="485.38625" y="152.539599" style="fill: #666666; stroke: #666666; stroke-width: 0.8"/>
      </g>
     </g>
     <g id="text_24">
      <!-- Linear Algebra -->
      <g style="fill: #666666" transform="translate(420.01375 155.578974) scale(0.08 -0.08)">
       <use xlink:href="#DejaVuSans-4c"/>
       <use xlink:href="#DejaVuSans-69" transform="translate(55.712891 0)"/>
       <use xlink:href="#DejaVuSans-6e" transform="translate(83.496094 0)"/>
       <use xlink:href="#DejaVuSans-65" transform="translate(146.875 0)"/>
       <use xlink:href="#DejaVuSans-61" transform="translate(208.398438 0)"/>
       <use xlink:href="#DejaVuSans-72" transform="translate(269.677734 0)"/>
       <use xlink:href="#DejaVuSans-20" transform="translate(310.791016 0)"/>
       <use xlink:href="#DejaVuSans-41" transform="translate(342.578125 0)"/>
       <use xlink:href="#DejaVuSans-6c" transform="translate(410.986328 0)"/>
       <use xlink:href="#DejaVuSans-67" transform="translate(438.769531 0)"/>
       <use xlink:href="#DejaVuSans-65" transform="translate(502.246094 0)"/>
       <use xlink:href="#DejaVuSans-62" transform="translate(563.769531 0)"/>
       <use xlink:href="#DejaVuSans-72" transform="translate(627.246094 0)"/>
       <use xlink:href="#DejaVuSans-61" transform="translate(668.359375 0)"/>
      </g>
     </g>
    </g>
    <g id="ytick_10">
     <g id="line2d_22">
      <g>
       <use xlink:href="#mad7b8d87ff" x="485.38625" y="123.116401" style="fill: #666666; stroke: #666666; stroke-width: 0.8"/>
      </g>
     </g>
     <g id="text_25">
      <!-- Data Structures -->
      <g style="fill: #666666" transform="translate(415.365 126.155776) scale(0.08 -0.08)">
       <use xlink:href="#DejaVuSans-44"/>
       <use xlink:href="#DejaVuSans-61" transform="translate(77.001953 0)"/>
       <use xlink:href="#DejaVuSans-74" transform="translate(138.28125 0)"/>
       <use xlink:href="#DejaVuSans-61" transform="translate(177.490234 0)"/>
       <use xlink:href="#DejaVuSans-20" transform="translate(238.769531 0)"/>
       <use xlink:href="#DejaVuSans-53" transform="translate(270.556641 0)"/>
       <use xlink:href="#DejaVuSans-74" transform="translate(334.033203 0)"/>
       <use xlink:href="#DejaVuSans-72" transform="translate(373.242188 0)"/>
       <use xlink:href="#DejaVuSans-75" transform="translate(414.355469 0)"/>
       <use xlink:href="#DejaVuSans-63" transform="translate(477.734375 0)"/>
       <use xlink:href="#DejaVuSans-74" transform="translate(532.714844 0)"/>
       <use xlink:href="#DejaVuSans-75" transform="translate(571.923828 0)"/>
       <use xlink:href="#DejaVuSans-72" transform="translate(635.302734 0)"/>
       <use xlink:href="#DejaVuSans-65" transform="translate(674.166016 0)"/>
       <use xlink:href="#DejaVuSans-73" transform="translate(735.689453 0)"/>
      </g>
     </g>
    </g>
    <g id="ytick_11">
     <g id="line2d_23">
      <g>
       <use xlink:href="#mad7b8d87ff" x="485.38625" y="93.693204" style="fill: #666666; stroke: #666666; stroke-width: 0.8"/>
      </g>
     </g>
     <g id="text_26">
      <!-- Statistics -->
      <g style="fill: #666666" transform="translate(441.8175 96.732579) scale(0.08 -0.08)">
       <use xlink:href="#DejaVuSans-53"/>
       <use xlink:href="#DejaVuSans-74" transform="translate(63.476562 0)"/>
       <use xlink:href="#DejaVuSans-61" transform="translate(102.685547 0)"/>
       <use xlink:href="#DejaVuSans-74" transform="translate(163.964844 0)"/>
       <use xlink:href="#DejaVuSans-69" transform="translate(203.173828 0)"/>
       <use xlink:href="#DejaVuSans-73" transform="translate(230.957031 0)"/>
       <use xlink:href="#DejaVuSans-74" transform="translate(283.056641 0)"/>
       <use xlink:href="#DejaVuSans-69" transform="translate(322.265625 0)"/>
       <use xlink:href="#DejaVuSans-63" transform="translate(350.048828 0)"/>
       <use xlink:href="#DejaVuSans-73" transform="translate(405.029297 0)"/>
      </g>
     </g>
    </g>
    <g id="ytick_12">
     <g id="line2d_24">
      <g>
       <use xlink:href="#mad7b8d87ff" x="485.38625" y="64.270006" style="fill: #666666; stroke: #666666; stroke-width: 0.8"/>
      </g>
     </g>
     <g id="text_27">
      <!-- Machine Learning -->
      <g style="fill: #666666" transform="translate(407.6225 67.309381) scale(0.08 -0.08)">
       <use xlink:href="#DejaVuSans-4d"/>
       <use xlink:href="#DejaVuSans-61" transform="translate(86.279297 0)"/>
       <use xlink:href="#DejaVuSans-63" transform="translate(147.558594 0)"/>
       <use xlink:href="#DejaVuSans-68" transform="translate(202.539062 0)"/>
       <use xlink:href="#DejaVuSans-69" transform="translate(265.917969 0)"/>
       <use xlink:href="#DejaVuSans-6e" transform="translate(293.701172 0)"/>
       <use xlink:href="#DejaVuSans-65" transform="translate(357.080078 0)"/>
       <use xlink:href="#DejaVuSans-20" transform="translate(418.603516 0)"/>
       <use xlink:href="#DejaVuSans-4c" transform="translate(450.390625 0)"/>
       <use xlink:href="#DejaVuSans-65" transform="translate(504.353516 0)"/>
       <use xlink:href="#DejaVuSans-61" transform="translate(565.876953 0)"/>
       <use xlink:href="#DejaVuSans-72" transform="translate(627.15625 0)"/>
       <use xlink:href="#DejaVuSans-6e" transform="translate(666.519531 0)"/>
       <use xlink:href="#DejaVuSans-69" transform="translate(729.898438 0)"/>
       <use xlink:href="#DejaVuSans-6e" transform="translate(757.681641 0)"/>
       <use xlink:href="#DejaVuSans-67" transform="translate(821.060547 0)"/>
      </g>
     </g>
    </g>
   </g>
   <g id="patch_18">
    <path d="M 485.38625 231.688 
L 485.38625 43.968 
" style="fill: none; stroke: #bbbbbb; stroke-width: 0.8; stroke-linejoin: miter; stroke-linecap: square"/>
   </g>
   <g id="patch_19">
    <path d="M 485.38625 231.688 
L 766.59625 231.688 
" style="fill: none; stroke: #bbbbbb; stroke-width: 0.8; stroke-linejoin: miter; stroke-linecap: square"/>
   </g>
   <g id="text_28">
    <!-- Colour highlights 'Machine Learning' -->
    <g style="fill: #1e293b" transform="translate(512.391328 37.968) scale(0.11 -0.11)">
     <defs>
      <path id="DejaVuSans-Bold-43" d="M 4288 256 
Q 3956 84 3597 -3 
Q 3238 -91 2847 -91 
Q 1681 -91 1000 561 
Q 319 1213 319 2328 
Q 319 3447 1000 4098 
Q 1681 4750 2847 4750 
Q 3238 4750 3597 4662 
Q 3956 4575 4288 4403 
L 4288 3438 
Q 3953 3666 3628 3772 
Q 3303 3878 2944 3878 
Q 2300 3878 1931 3465 
Q 1563 3053 1563 2328 
Q 1563 1606 1931 1193 
Q 2300 781 2944 781 
Q 3303 781 3628 887 
Q 3953 994 4288 1222 
L 4288 256 
z
" transform="scale(0.015625)"/>
      <path id="DejaVuSans-Bold-75" d="M 500 1363 
L 500 3500 
L 1625 3500 
L 1625 3150 
Q 1625 2866 1622 2436 
Q 1619 2006 1619 1863 
Q 1619 1441 1641 1255 
Q 1663 1069 1716 984 
Q 1784 875 1895 815 
Q 2006 756 2150 756 
Q 2500 756 2700 1025 
Q 2900 1294 2900 1772 
L 2900 3500 
L 4019 3500 
L 4019 0 
L 2900 0 
L 2900 506 
Q 2647 200 2364 54 
Q 2081 -91 1741 -91 
Q 1134 -91 817 281 
Q 500 653 500 1363 
z
" transform="scale(0.015625)"/>
      <path id="DejaVuSans-Bold-68" d="M 4056 2131 
L 4056 0 
L 2931 0 
L 2931 347 
L 2931 1625 
Q 2931 2084 2911 2256 
Q 2891 2428 2841 2509 
Q 2775 2619 2662 2680 
Q 2550 2741 2406 2741 
Q 2056 2741 1856 2470 
Q 1656 2200 1656 1722 
L 1656 0 
L 538 0 
L 538 4863 
L 1656 4863 
L 1656 2988 
Q 1909 3294 2193 3439 
Q 2478 3584 2822 3584 
Q 3428 3584 3742 3212 
Q 4056 2841 4056 2131 
z
" transform="scale(0.015625)"/>
      <path id="DejaVuSans-Bold-27" d="M 1350 4666 
L 1350 2931 
L 609 2931 
L 609 4666 
L 1350 4666 
z
" transform="scale(0.015625)"/>
      <path id="DejaVuSans-Bold-4d" d="M 588 4666 
L 2119 4666 
L 3181 2169 
L 4250 4666 
L 5778 4666 
L 5778 0 
L 4641 0 
L 4641 3413 
L 3566 897 
L 2803 897 
L 1728 3413 
L 1728 0 
L 588 0 
L 588 4666 
z
" transform="scale(0.015625)"/>
      <path id="DejaVuSans-Bold-63" d="M 3366 3391 
L 3366 2478 
Q 3138 2634 2908 2709 
Q 2678 2784 2431 2784 
Q 1963 2784 1702 2511 
Q 1441 2238 1441 1747 
Q 1441 1256 1702 982 
Q 1963 709 2431 709 
Q 2694 709 2930 787 
Q 3166 866 3366 1019 
L 3366 103 
Q 3103 6 2833 -42 
Q 2563 -91 2291 -91 
Q 1344 -91 809 395 
Q 275 881 275 1747 
Q 275 2613 809 3098 
Q 1344 3584 2291 3584 
Q 2566 3584 2833 3536 
Q 3100 3488 3366 3391 
z
" transform="scale(0.015625)"/>
      <path id="DejaVuSans-Bold-4c" d="M 588 4666 
L 1791 4666 
L 1791 909 
L 3903 909 
L 3903 0 
L 588 0 
L 588 4666 
z
" transform="scale(0.015625)"/>
     </defs>
     <use xlink:href="#DejaVuSans-Bold-43"/>
     <use xlink:href="#DejaVuSans-Bold-6f" transform="translate(73.388672 0)"/>
     <use xlink:href="#DejaVuSans-Bold-6c" transform="translate(142.089844 0)"/>
     <use xlink:href="#DejaVuSans-Bold-6f" transform="translate(176.367188 0)"/>
     <use xlink:href="#DejaVuSans-Bold-75" transform="translate(245.068359 0)"/>
     <use xlink:href="#DejaVuSans-Bold-72" transform="translate(316.259766 0)"/>
     <use xlink:href="#DejaVuSans-Bold-20" transform="translate(365.576172 0)"/>
     <use xlink:href="#DejaVuSans-Bold-68" transform="translate(400.390625 0)"/>
     <use xlink:href="#DejaVuSans-Bold-69" transform="translate(471.582031 0)"/>
     <use xlink:href="#DejaVuSans-Bold-67" transform="translate(505.859375 0)"/>
     <use xlink:href="#DejaVuSans-Bold-68" transform="translate(577.441406 0)"/>
     <use xlink:href="#DejaVuSans-Bold-6c" transform="translate(648.632812 0)"/>
     <use xlink:href="#DejaVuSans-Bold-69" transform="translate(682.910156 0)"/>
     <use xlink:href="#DejaVuSans-Bold-67" transform="translate(717.1875 0)"/>
     <use xlink:href="#DejaVuSans-Bold-68" transform="translate(788.769531 0)"/>
     <use xlink:href="#DejaVuSans-Bold-74" transform="translate(859.960938 0)"/>
     <use xlink:href="#DejaVuSans-Bold-73" transform="translate(907.763672 0)"/>
     <use xlink:href="#DejaVuSans-Bold-20" transform="translate(967.285156 0)"/>
     <use xlink:href="#DejaVuSans-Bold-27" transform="translate(1002.099609 0)"/>
     <use xlink:href="#DejaVuSans-Bold-4d" transform="translate(1032.714844 0)"/>
     <use xlink:href="#DejaVuSans-Bold-61" transform="translate(1132.226562 0)"/>
     <use xlink:href="#DejaVuSans-Bold-63" transform="translate(1199.707031 0)"/>
     <use xlink:href="#DejaVuSans-Bold-68" transform="translate(1258.984375 0)"/>
     <use xlink:href="#DejaVuSans-Bold-69" transform="translate(1330.175781 0)"/>
     <use xlink:href="#DejaVuSans-Bold-6e" transform="translate(1364.453125 0)"/>
     <use xlink:href="#DejaVuSans-Bold-65" transform="translate(1435.644531 0)"/>
     <use xlink:href="#DejaVuSans-Bold-20" transform="translate(1503.466797 0)"/>
     <use xlink:href="#DejaVuSans-Bold-4c" transform="translate(1538.28125 0)"/>
     <use xlink:href="#DejaVuSans-Bold-65" transform="translate(1602.001953 0)"/>
     <use xlink:href="#DejaVuSans-Bold-61" transform="translate(1669.824219 0)"/>
     <use xlink:href="#DejaVuSans-Bold-72" transform="translate(1737.304688 0)"/>
     <use xlink:href="#DejaVuSans-Bold-6e" transform="translate(1786.621094 0)"/>
     <use xlink:href="#DejaVuSans-Bold-69" transform="translate(1857.8125 0)"/>
     <use xlink:href="#DejaVuSans-Bold-6e" transform="translate(1892.089844 0)"/>
     <use xlink:href="#DejaVuSans-Bold-67" transform="translate(1963.28125 0)"/>
     <use xlink:href="#DejaVuSans-Bold-27" transform="translate(2034.863281 0)"/>
    </g>
   </g>
  </g>
  <g id="text_29">
   <!-- Same data — preattentive colour changes where the eye goes first -->
   <g style="fill: #6b7280" transform="translate(220.995625 11.198438) scale(0.1 -0.1)">
    <defs>
     <path id="DejaVuSans-64" d="M 2906 2969 
L 2906 4863 
L 3481 4863 
L 3481 0 
L 2906 0 
L 2906 525 
Q 2725 213 2448 61 
Q 2172 -91 1784 -91 
Q 1150 -91 751 415 
Q 353 922 353 1747 
Q 353 2572 751 3078 
Q 1150 3584 1784 3584 
Q 2172 3584 2448 3432 
Q 2725 3281 2906 2969 
z
M 947 1747 
Q 947 1113 1208 752 
Q 1469 391 1925 391 
Q 2381 391 2643 752 
Q 2906 1113 2906 1747 
Q 2906 2381 2643 2742 
Q 2381 3103 1925 3103 
Q 1469 3103 1208 2742 
Q 947 2381 947 1747 
z
" transform="scale(0.015625)"/>
     <path id="DejaVuSans-2014" d="M 313 1978 
L 6088 1978 
L 6088 1528 
L 313 1528 
L 313 1978 
z
" transform="scale(0.015625)"/>
     <path id="DejaVuSans-70" d="M 1159 525 
L 1159 -1331 
L 581 -1331 
L 581 3500 
L 1159 3500 
L 1159 2969 
Q 1341 3281 1617 3432 
Q 1894 3584 2278 3584 
Q 2916 3584 3314 3078 
Q 3713 2572 3713 1747 
Q 3713 922 3314 415 
Q 2916 -91 2278 -91 
Q 1894 -91 1617 61 
Q 1341 213 1159 525 
z
M 3116 1747 
Q 3116 2381 2855 2742 
Q 2594 3103 2138 3103 
Q 1681 3103 1420 2742 
Q 1159 2381 1159 1747 
Q 1159 1113 1420 752 
Q 1681 391 2138 391 
Q 2594 391 2855 752 
Q 3116 1113 3116 1747 
z
" transform="scale(0.015625)"/>
     <path id="DejaVuSans-76" d="M 191 3500 
L 800 3500 
L 1894 563 
L 2988 3500 
L 3597 3500 
L 2284 0 
L 1503 0 
L 191 3500 
z
" transform="scale(0.015625)"/>
     <path id="DejaVuSans-77" d="M 269 3500 
L 844 3500 
L 1563 769 
L 2278 3500 
L 2956 3500 
L 3675 769 
L 4391 3500 
L 4966 3500 
L 4050 0 
L 3372 0 
L 2619 2869 
L 1863 0 
L 1184 0 
L 269 3500 
z
" transform="scale(0.015625)"/>
    </defs>
    <use xlink:href="#DejaVuSans-53"/>
    <use xlink:href="#DejaVuSans-61" transform="translate(63.476562 0)"/>
    <use xlink:href="#DejaVuSans-6d" transform="translate(124.755859 0)"/>
    <use xlink:href="#DejaVuSans-65" transform="translate(222.167969 0)"/>
    <use xlink:href="#DejaVuSans-20" transform="translate(283.691406 0)"/>
    <use xlink:href="#DejaVuSans-64" transform="translate(315.478516 0)"/>
    <use xlink:href="#DejaVuSans-61" transform="translate(378.955078 0)"/>
    <use xlink:href="#DejaVuSans-74" transform="translate(440.234375 0)"/>
    <use xlink:href="#DejaVuSans-61" transform="translate(479.443359 0)"/>
    <use xlink:href="#DejaVuSans-20" transform="translate(540.722656 0)"/>
    <use xlink:href="#DejaVuSans-2014" transform="translate(572.509766 0)"/>
    <use xlink:href="#DejaVuSans-20" transform="translate(672.509766 0)"/>
    <use xlink:href="#DejaVuSans-70" transform="translate(704.296875 0)"/>
    <use xlink:href="#DejaVuSans-72" transform="translate(767.773438 0)"/>
    <use xlink:href="#DejaVuSans-65" transform="translate(806.636719 0)"/>
    <use xlink:href="#DejaVuSans-61" transform="translate(868.160156 0)"/>
    <use xlink:href="#DejaVuSans-74" transform="translate(929.439453 0)"/>
    <use xlink:href="#DejaVuSans-74" transform="translate(968.648438 0)"/>
    <use xlink:href="#DejaVuSans-65" transform="translate(1007.857422 0)"/>
    <use xlink:href="#DejaVuSans-6e" transform="translate(1069.380859 0)"/>
    <use xlink:href="#DejaVuSans-74" transform="translate(1132.759766 0)"/>
    <use xlink:href="#DejaVuSans-69" transform="translate(1171.96875 0)"/>
    <use xlink:href="#DejaVuSans-76" transform="translate(1199.751953 0)"/>
    <use xlink:href="#DejaVuSans-65" transform="translate(1258.931641 0)"/>
    <use xlink:href="#DejaVuSans-20" transform="translate(1320.455078 0)"/>
    <use xlink:href="#DejaVuSans-63" transform="translate(1352.242188 0)"/>
    <use xlink:href="#DejaVuSans-6f" transform="translate(1407.222656 0)"/>
    <use xlink:href="#DejaVuSans-6c" transform="translate(1468.404297 0)"/>
    <use xlink:href="#DejaVuSans-6f" transform="translate(1496.1875 0)"/>
    <use xlink:href="#DejaVuSans-75" transform="translate(1557.369141 0)"/>
    <use xlink:href="#DejaVuSans-72" transform="translate(1620.748047 0)"/>
    <use xlink:href="#DejaVuSans-20" transform="translate(1661.861328 0)"/>
    <use xlink:href="#DejaVuSans-63" transform="translate(1693.648438 0)"/>
    <use xlink:href="#DejaVuSans-68" transform="translate(1748.628906 0)"/>
    <use xlink:href="#DejaVuSans-61" transform="translate(1812.007812 0)"/>
    <use xlink:href="#DejaVuSans-6e" transform="translate(1873.287109 0)"/>
    <use xlink:href="#DejaVuSans-67" transform="translate(1936.666016 0)"/>
    <use xlink:href="#DejaVuSans-65" transform="translate(2000.142578 0)"/>
    <use xlink:href="#DejaVuSans-73" transform="translate(2061.666016 0)"/>
    <use xlink:href="#DejaVuSans-20" transform="translate(2113.765625 0)"/>
    <use xlink:href="#DejaVuSans-77" transform="translate(2145.552734 0)"/>
    <use xlink:href="#DejaVuSans-68" transform="translate(2227.339844 0)"/>
    <use xlink:href="#DejaVuSans-65" transform="translate(2290.71875 0)"/>
    <use xlink:href="#DejaVuSans-72" transform="translate(2352.242188 0)"/>
    <use xlink:href="#DejaVuSans-65" transform="translate(2391.105469 0)"/>
    <use xlink:href="#DejaVuSans-20" transform="translate(2452.628906 0)"/>
    <use xlink:href="#DejaVuSans-74" transform="translate(2484.416016 0)"/>
    <use xlink:href="#DejaVuSans-68" transform="translate(2523.625 0)"/>
    <use xlink:href="#DejaVuSans-65" transform="translate(2587.003906 0)"/>
    <use xlink:href="#DejaVuSans-20" transform="translate(2648.527344 0)"/>
    <use xlink:href="#DejaVuSans-65" transform="translate(2680.314453 0)"/>
    <use xlink:href="#DejaVuSans-79" transform="translate(2741.837891 0)"/>
    <use xlink:href="#DejaVuSans-65" transform="translate(2801.017578 0)"/>
    <use xlink:href="#DejaVuSans-20" transform="translate(2862.541016 0)"/>
    <use xlink:href="#DejaVuSans-67" transform="translate(2894.328125 0)"/>
    <use xlink:href="#DejaVuSans-6f" transform="translate(2957.804688 0)"/>
    <use xlink:href="#DejaVuSans-65" transform="translate(3018.986328 0)"/>
    <use xlink:href="#DejaVuSans-73" transform="translate(3080.509766 0)"/>
    <use xlink:href="#DejaVuSans-20" transform="translate(3132.609375 0)"/>
    <use xlink:href="#DejaVuSans-66" transform="translate(3164.396484 0)"/>
    <use xlink:href="#DejaVuSans-69" transform="translate(3199.601562 0)"/>
    <use xlink:href="#DejaVuSans-72" transform="translate(3227.384766 0)"/>
    <use xlink:href="#DejaVuSans-73" transform="translate(3268.498047 0)"/>
    <use xlink:href="#DejaVuSans-74" transform="translate(3320.597656 0)"/>
   </g>
  </g>
 </g>
 <defs>
  <clipPath id="pe47d2c15bc">
   <rect x="94.78625" y="43.968" width="281.21" height="187.72"/>
  </clipPath>
  <clipPath id="pfdddfb6c67">
   <rect x="485.38625" y="43.968" width="281.21" height="187.72"/>
  </clipPath>
 </defs>
</svg>
